%TF.GenerationSoftware,KiCad,Pcbnew,4.0.7*%
%TF.CreationDate,2017-10-24T10:16:06+09:00*%
%TF.ProjectId,RaSCSI,5261534353492E6B696361645F706362,rev?*%
%TF.FileFunction,Soldermask,Top*%
%FSLAX46Y46*%
G04 Gerber Fmt 4.6, Leading zero omitted, Abs format (unit mm)*
G04 Created by KiCad (PCBNEW 4.0.7) date 10/24/17 10:16:06*
%MOMM*%
%LPD*%
G01*
G04 APERTURE LIST*
%ADD10C,0.100000*%
%ADD11C,1.924000*%
%ADD12C,3.399700*%
%ADD13R,1.000000X2.350000*%
%ADD14R,1.924000X1.924000*%
%ADD15R,1.600000X1.770000*%
G04 APERTURE END LIST*
D10*
D11*
X137030000Y-71000000D03*
X138300000Y-72910000D03*
X139570000Y-71000000D03*
X140840000Y-72910000D03*
X142110000Y-71000000D03*
X143380000Y-72910000D03*
X144650000Y-71000000D03*
X145920000Y-72910000D03*
X147190000Y-71000000D03*
X148460000Y-72910000D03*
X149730000Y-71000000D03*
X151000000Y-72910000D03*
X152270000Y-71000000D03*
X153540000Y-72910000D03*
X135760000Y-72910000D03*
X154810000Y-71000000D03*
X156080000Y-72910000D03*
X157350000Y-71000000D03*
X158620000Y-72910000D03*
X159890000Y-71000000D03*
X161160000Y-72910000D03*
X162430000Y-71000000D03*
X163700000Y-72910000D03*
X164970000Y-71000000D03*
X166240000Y-72910000D03*
X135760000Y-69090000D03*
X137030000Y-67180000D03*
X138300000Y-69090000D03*
X139570000Y-67180000D03*
X140840000Y-69090000D03*
X142110000Y-67180000D03*
X143380000Y-69090000D03*
X144650000Y-67180000D03*
X145920000Y-69090000D03*
X147190000Y-67180000D03*
X148460000Y-69090000D03*
X149730000Y-67180000D03*
X151000000Y-69090000D03*
X152270000Y-67180000D03*
X153540000Y-69090000D03*
X154810000Y-67180000D03*
X156080000Y-69090000D03*
X157350000Y-67180000D03*
X158620000Y-69090000D03*
X159890000Y-67180000D03*
X161160000Y-69090000D03*
X162430000Y-67180000D03*
X163700000Y-69090000D03*
X164970000Y-67180000D03*
X166240000Y-69090000D03*
D12*
X180000000Y-115500000D03*
D13*
X149860000Y-99440000D03*
X148590000Y-99440000D03*
X147320000Y-99440000D03*
X146050000Y-99440000D03*
X144780000Y-99440000D03*
X143510000Y-99440000D03*
X142240000Y-99440000D03*
X140970000Y-99440000D03*
X139700000Y-99440000D03*
X138430000Y-99440000D03*
X138430000Y-108840000D03*
X139700000Y-108840000D03*
X140970000Y-108840000D03*
X142240000Y-108840000D03*
X143510000Y-108840000D03*
X144780000Y-108840000D03*
X146050000Y-108840000D03*
X147320000Y-108840000D03*
X148590000Y-108840000D03*
X149860000Y-108840000D03*
D11*
X152400000Y-95885000D03*
X152400000Y-88265000D03*
X180975000Y-109220000D03*
X180975000Y-99060000D03*
D13*
X166370000Y-108840000D03*
X167640000Y-108840000D03*
X168910000Y-108840000D03*
X170180000Y-108840000D03*
X171450000Y-108840000D03*
X172720000Y-108840000D03*
X173990000Y-108840000D03*
X175260000Y-108840000D03*
X176530000Y-108840000D03*
X177800000Y-108840000D03*
X177800000Y-99440000D03*
X176530000Y-99440000D03*
X175260000Y-99440000D03*
X173990000Y-99440000D03*
X172720000Y-99440000D03*
X171450000Y-99440000D03*
X170180000Y-99440000D03*
X168910000Y-99440000D03*
X167640000Y-99440000D03*
X166370000Y-99440000D03*
X152400000Y-108840000D03*
X153670000Y-108840000D03*
X154940000Y-108840000D03*
X156210000Y-108840000D03*
X157480000Y-108840000D03*
X158750000Y-108840000D03*
X160020000Y-108840000D03*
X161290000Y-108840000D03*
X162560000Y-108840000D03*
X163830000Y-108840000D03*
X163830000Y-99440000D03*
X162560000Y-99440000D03*
X161290000Y-99440000D03*
X160020000Y-99440000D03*
X158750000Y-99440000D03*
X157480000Y-99440000D03*
X156210000Y-99440000D03*
X154940000Y-99440000D03*
X153670000Y-99440000D03*
X152400000Y-99440000D03*
X135890000Y-99440000D03*
X134620000Y-99440000D03*
X133350000Y-99440000D03*
X132080000Y-99440000D03*
X130810000Y-99440000D03*
X129540000Y-99440000D03*
X128270000Y-99440000D03*
X127000000Y-99440000D03*
X125730000Y-99440000D03*
X124460000Y-99440000D03*
X124460000Y-108840000D03*
X125730000Y-108840000D03*
X127000000Y-108840000D03*
X128270000Y-108840000D03*
X129540000Y-108840000D03*
X130810000Y-108840000D03*
X132080000Y-108840000D03*
X133350000Y-108840000D03*
X134620000Y-108840000D03*
X135890000Y-108840000D03*
D14*
X175130000Y-114210000D03*
D11*
X175130000Y-116750000D03*
X172590000Y-114210000D03*
X172590000Y-116750000D03*
X170050000Y-114210000D03*
X170050000Y-116750000D03*
X167510000Y-114210000D03*
X167510000Y-116750000D03*
X164970000Y-114210000D03*
X164970000Y-116750000D03*
X162430000Y-114210000D03*
X162430000Y-116750000D03*
X159890000Y-114210000D03*
X159890000Y-116750000D03*
X157350000Y-114210000D03*
X157350000Y-116750000D03*
X154810000Y-114210000D03*
X154810000Y-116750000D03*
X152270000Y-114210000D03*
X152270000Y-116750000D03*
X149730000Y-114210000D03*
X149730000Y-116750000D03*
X147190000Y-114210000D03*
X147190000Y-116750000D03*
X144650000Y-114210000D03*
X144650000Y-116750000D03*
X142110000Y-114210000D03*
X142110000Y-116750000D03*
X139570000Y-114210000D03*
X139570000Y-116750000D03*
X137030000Y-114210000D03*
X137030000Y-116750000D03*
X134490000Y-114210000D03*
X134490000Y-116750000D03*
X131950000Y-114210000D03*
X131950000Y-116750000D03*
X129410000Y-114210000D03*
X129410000Y-116750000D03*
X126870000Y-114210000D03*
X126870000Y-116750000D03*
X180975000Y-93345000D03*
X180975000Y-90805000D03*
X149860000Y-94615000D03*
X149860000Y-89535000D03*
X121285000Y-109220000D03*
X121285000Y-99060000D03*
D15*
X180975000Y-73575000D03*
X180975000Y-71205000D03*
X121285000Y-73575000D03*
X121285000Y-71205000D03*
D12*
X122000000Y-115500000D03*
X122000000Y-66500000D03*
X180000000Y-66500000D03*
D14*
X120650000Y-81915000D03*
D11*
X120650000Y-79375000D03*
X123190000Y-81915000D03*
X123190000Y-79375000D03*
X125730000Y-81915000D03*
X125730000Y-79375000D03*
X128270000Y-81915000D03*
X128270000Y-79375000D03*
X130810000Y-81915000D03*
X130810000Y-79375000D03*
X133350000Y-81915000D03*
X133350000Y-79375000D03*
X135890000Y-81915000D03*
X135890000Y-79375000D03*
X138430000Y-81915000D03*
X138430000Y-79375000D03*
X140970000Y-81915000D03*
X140970000Y-79375000D03*
X143510000Y-81915000D03*
X143510000Y-79375000D03*
X146050000Y-81915000D03*
X146050000Y-79375000D03*
X148590000Y-81915000D03*
X148590000Y-79375000D03*
X151130000Y-81915000D03*
X151130000Y-79375000D03*
X153670000Y-81915000D03*
X153670000Y-79375000D03*
X156210000Y-81915000D03*
X156210000Y-79375000D03*
X158750000Y-81915000D03*
X158750000Y-79375000D03*
X161290000Y-81915000D03*
X161290000Y-79375000D03*
X163830000Y-81915000D03*
X163830000Y-79375000D03*
X166370000Y-81915000D03*
X166370000Y-79375000D03*
X168910000Y-81915000D03*
X168910000Y-79375000D03*
X171450000Y-81915000D03*
X171450000Y-79375000D03*
X173990000Y-81915000D03*
X173990000Y-79375000D03*
X176530000Y-81915000D03*
X176530000Y-79375000D03*
X179070000Y-81915000D03*
X179070000Y-79375000D03*
X181610000Y-81915000D03*
X181610000Y-79375000D03*
M02*
