%TF.GenerationSoftware,KiCad,Pcbnew,4.0.7*%
%TF.CreationDate,2017-10-24T10:16:06+09:00*%
%TF.ProjectId,RaSCSI,5261534353492E6B696361645F706362,rev?*%
%TF.FileFunction,Legend,Top*%
%FSLAX46Y46*%
G04 Gerber Fmt 4.6, Leading zero omitted, Abs format (unit mm)*
G04 Created by KiCad (PCBNEW 4.0.7) date 10/24/17 10:16:06*
%MOMM*%
%LPD*%
G01*
G04 APERTURE LIST*
%ADD10C,0.100000*%
%ADD11C,0.050000*%
%ADD12C,0.150000*%
%ADD13C,0.200000*%
%ADD14C,0.010000*%
%ADD15C,1.924000*%
%ADD16C,3.399700*%
%ADD17R,1.000000X2.350000*%
%ADD18R,1.924000X1.924000*%
%ADD19R,1.600000X1.770000*%
G04 APERTURE END LIST*
D10*
D11*
X144684750Y-94551500D02*
X145954750Y-94551500D01*
X144684750Y-94551500D02*
X144684750Y-96202500D01*
X145954750Y-94551500D02*
X145954750Y-94678500D01*
X145700750Y-95313500D02*
X145700750Y-95440500D01*
X145954750Y-96075500D02*
X145954750Y-96202500D01*
X145954750Y-96202500D02*
X144684750Y-96202500D01*
X145065750Y-94678500D02*
X145065750Y-95313500D01*
X145065750Y-95440500D02*
X145065750Y-96075500D01*
X145065750Y-96075500D02*
X145954750Y-96075500D01*
X145700750Y-95440500D02*
X145065750Y-95440500D01*
X145065750Y-95313500D02*
X145700750Y-95313500D01*
X145065750Y-94678500D02*
X145954750Y-94678500D01*
X146145250Y-94551500D02*
X146526250Y-94551500D01*
X147288250Y-94551500D02*
X147415250Y-94551500D01*
X146272250Y-96202500D02*
X146145250Y-96202500D01*
X147383500Y-96202500D02*
X147002500Y-96202500D01*
X146856450Y-95178880D02*
X147288250Y-94551500D01*
X146856450Y-95181420D02*
X147288250Y-94551500D01*
X146635470Y-95493840D02*
X146145250Y-96202500D01*
X146688810Y-95600520D02*
X146272250Y-96202500D01*
X146907250Y-95285560D02*
X147415250Y-94551500D01*
X146635470Y-95493840D02*
X146145250Y-94551500D01*
X147001230Y-96202500D02*
X146688810Y-95600520D01*
X146526250Y-94551500D02*
X146856450Y-95181420D01*
X147384770Y-96202500D02*
X146907250Y-95285560D01*
X144748250Y-94551500D02*
X144748250Y-96202500D01*
X144811750Y-94551500D02*
X144811750Y-96202500D01*
X144875250Y-96202500D02*
X144875250Y-94551500D01*
X144938750Y-94551500D02*
X144938750Y-96202500D01*
X145002250Y-96202500D02*
X145002250Y-94551500D01*
X145700750Y-95377000D02*
X144684750Y-95377000D01*
X144716500Y-96202500D02*
X144716500Y-94551500D01*
X144780000Y-94551500D02*
X144780000Y-96202500D01*
X144843500Y-96202500D02*
X144843500Y-94551500D01*
X144907000Y-94551500D02*
X144907000Y-96202500D01*
X144970500Y-96202500D02*
X144970500Y-94551500D01*
X145034000Y-94551500D02*
X145034000Y-96202500D01*
X145700750Y-95345250D02*
X145065750Y-95345250D01*
X145065750Y-95408750D02*
X145700750Y-95408750D01*
X145954750Y-94583250D02*
X145065750Y-94583250D01*
X145065750Y-94615000D02*
X145954750Y-94615000D01*
X145954750Y-94646750D02*
X145065750Y-94646750D01*
X145954750Y-96107250D02*
X145065750Y-96107250D01*
X145065750Y-96139000D02*
X145954750Y-96139000D01*
X145954750Y-96170750D02*
X145065750Y-96170750D01*
X146208750Y-94551500D02*
X147066000Y-96202500D01*
X147034250Y-96202500D02*
X146177000Y-94551500D01*
X146240500Y-94551500D02*
X147097750Y-96202500D01*
X147129500Y-96202500D02*
X146272250Y-94551500D01*
X146304000Y-94551500D02*
X147161250Y-96202500D01*
X147193000Y-96202500D02*
X146335750Y-94551500D01*
X146367500Y-94551500D02*
X147224750Y-96202500D01*
X147288250Y-96202500D02*
X146431000Y-94551500D01*
X146399250Y-94551500D02*
X147256500Y-96202500D01*
X147320000Y-96202500D02*
X146462750Y-94551500D01*
X146494500Y-94551500D02*
X147351750Y-96202500D01*
X146177000Y-96202500D02*
X147320000Y-94551500D01*
X147351750Y-94551500D02*
X146208750Y-96202500D01*
X146240500Y-96202500D02*
X147383500Y-94551500D01*
D12*
X180213096Y-88400000D02*
X180117858Y-88352381D01*
X179975001Y-88352381D01*
X179832143Y-88400000D01*
X179736905Y-88495238D01*
X179689286Y-88590476D01*
X179641667Y-88780952D01*
X179641667Y-88923810D01*
X179689286Y-89114286D01*
X179736905Y-89209524D01*
X179832143Y-89304762D01*
X179975001Y-89352381D01*
X180070239Y-89352381D01*
X180213096Y-89304762D01*
X180260715Y-89257143D01*
X180260715Y-88923810D01*
X180070239Y-88923810D01*
X180689286Y-89352381D02*
X180689286Y-88352381D01*
X181260715Y-89352381D01*
X181260715Y-88352381D01*
X181736905Y-89352381D02*
X181736905Y-88352381D01*
X181975000Y-88352381D01*
X182117858Y-88400000D01*
X182213096Y-88495238D01*
X182260715Y-88590476D01*
X182308334Y-88780952D01*
X182308334Y-88923810D01*
X182260715Y-89114286D01*
X182213096Y-89209524D01*
X182117858Y-89304762D01*
X181975000Y-89352381D01*
X181736905Y-89352381D01*
X180784524Y-94956381D02*
X180308333Y-94956381D01*
X180260714Y-95432571D01*
X180308333Y-95384952D01*
X180403571Y-95337333D01*
X180641667Y-95337333D01*
X180736905Y-95384952D01*
X180784524Y-95432571D01*
X180832143Y-95527810D01*
X180832143Y-95765905D01*
X180784524Y-95861143D01*
X180736905Y-95908762D01*
X180641667Y-95956381D01*
X180403571Y-95956381D01*
X180308333Y-95908762D01*
X180260714Y-95861143D01*
X181117857Y-94956381D02*
X181451190Y-95956381D01*
X181784524Y-94956381D01*
D10*
X154353451Y-91574881D02*
X154353451Y-90574881D01*
X154734404Y-90574881D01*
X154829642Y-90622500D01*
X154877261Y-90670119D01*
X154924880Y-90765357D01*
X154924880Y-90908214D01*
X154877261Y-91003452D01*
X154829642Y-91051071D01*
X154734404Y-91098690D01*
X154353451Y-91098690D01*
X155924880Y-91479643D02*
X155877261Y-91527262D01*
X155734404Y-91574881D01*
X155639166Y-91574881D01*
X155496308Y-91527262D01*
X155401070Y-91432024D01*
X155353451Y-91336786D01*
X155305832Y-91146310D01*
X155305832Y-91003452D01*
X155353451Y-90812976D01*
X155401070Y-90717738D01*
X155496308Y-90622500D01*
X155639166Y-90574881D01*
X155734404Y-90574881D01*
X155877261Y-90622500D01*
X155924880Y-90670119D01*
X156686785Y-91051071D02*
X156829642Y-91098690D01*
X156877261Y-91146310D01*
X156924880Y-91241548D01*
X156924880Y-91384405D01*
X156877261Y-91479643D01*
X156829642Y-91527262D01*
X156734404Y-91574881D01*
X156353451Y-91574881D01*
X156353451Y-90574881D01*
X156686785Y-90574881D01*
X156782023Y-90622500D01*
X156829642Y-90670119D01*
X156877261Y-90765357D01*
X156877261Y-90860595D01*
X156829642Y-90955833D01*
X156782023Y-91003452D01*
X156686785Y-91051071D01*
X156353451Y-91051071D01*
X158115356Y-91574881D02*
X158115356Y-90908214D01*
X158115356Y-91003452D02*
X158162975Y-90955833D01*
X158258213Y-90908214D01*
X158401071Y-90908214D01*
X158496309Y-90955833D01*
X158543928Y-91051071D01*
X158543928Y-91574881D01*
X158543928Y-91051071D02*
X158591547Y-90955833D01*
X158686785Y-90908214D01*
X158829642Y-90908214D01*
X158924880Y-90955833D01*
X158972499Y-91051071D01*
X158972499Y-91574881D01*
X159877261Y-91574881D02*
X159877261Y-91051071D01*
X159829642Y-90955833D01*
X159734404Y-90908214D01*
X159543927Y-90908214D01*
X159448689Y-90955833D01*
X159877261Y-91527262D02*
X159782023Y-91574881D01*
X159543927Y-91574881D01*
X159448689Y-91527262D01*
X159401070Y-91432024D01*
X159401070Y-91336786D01*
X159448689Y-91241548D01*
X159543927Y-91193929D01*
X159782023Y-91193929D01*
X159877261Y-91146310D01*
X160353451Y-90908214D02*
X160353451Y-91574881D01*
X160353451Y-91003452D02*
X160401070Y-90955833D01*
X160496308Y-90908214D01*
X160639166Y-90908214D01*
X160734404Y-90955833D01*
X160782023Y-91051071D01*
X160782023Y-91574881D01*
X161686785Y-90908214D02*
X161686785Y-91574881D01*
X161258213Y-90908214D02*
X161258213Y-91432024D01*
X161305832Y-91527262D01*
X161401070Y-91574881D01*
X161543928Y-91574881D01*
X161639166Y-91527262D01*
X161686785Y-91479643D01*
X162020118Y-90908214D02*
X162401070Y-90908214D01*
X162162975Y-91574881D02*
X162162975Y-90717738D01*
X162210594Y-90622500D01*
X162305832Y-90574881D01*
X162401070Y-90574881D01*
X163162976Y-91574881D02*
X163162976Y-91051071D01*
X163115357Y-90955833D01*
X163020119Y-90908214D01*
X162829642Y-90908214D01*
X162734404Y-90955833D01*
X163162976Y-91527262D02*
X163067738Y-91574881D01*
X162829642Y-91574881D01*
X162734404Y-91527262D01*
X162686785Y-91432024D01*
X162686785Y-91336786D01*
X162734404Y-91241548D01*
X162829642Y-91193929D01*
X163067738Y-91193929D01*
X163162976Y-91146310D01*
X164067738Y-91527262D02*
X163972500Y-91574881D01*
X163782023Y-91574881D01*
X163686785Y-91527262D01*
X163639166Y-91479643D01*
X163591547Y-91384405D01*
X163591547Y-91098690D01*
X163639166Y-91003452D01*
X163686785Y-90955833D01*
X163782023Y-90908214D01*
X163972500Y-90908214D01*
X164067738Y-90955833D01*
X164353452Y-90908214D02*
X164734404Y-90908214D01*
X164496309Y-90574881D02*
X164496309Y-91432024D01*
X164543928Y-91527262D01*
X164639166Y-91574881D01*
X164734404Y-91574881D01*
X165496310Y-90908214D02*
X165496310Y-91574881D01*
X165067738Y-90908214D02*
X165067738Y-91432024D01*
X165115357Y-91527262D01*
X165210595Y-91574881D01*
X165353453Y-91574881D01*
X165448691Y-91527262D01*
X165496310Y-91479643D01*
X165972500Y-91574881D02*
X165972500Y-90908214D01*
X165972500Y-91098690D02*
X166020119Y-91003452D01*
X166067738Y-90955833D01*
X166162976Y-90908214D01*
X166258215Y-90908214D01*
X166972501Y-91527262D02*
X166877263Y-91574881D01*
X166686786Y-91574881D01*
X166591548Y-91527262D01*
X166543929Y-91432024D01*
X166543929Y-91051071D01*
X166591548Y-90955833D01*
X166686786Y-90908214D01*
X166877263Y-90908214D01*
X166972501Y-90955833D01*
X167020120Y-91051071D01*
X167020120Y-91146310D01*
X166543929Y-91241548D01*
X167448691Y-91574881D02*
X167448691Y-90908214D01*
X167448691Y-91098690D02*
X167496310Y-91003452D01*
X167543929Y-90955833D01*
X167639167Y-90908214D01*
X167734406Y-90908214D01*
X132890262Y-89003190D02*
X132842643Y-88955571D01*
X132747405Y-88907952D01*
X132652167Y-88907952D01*
X132556929Y-88955571D01*
X132509309Y-89003190D01*
X132461690Y-89098429D01*
X132461690Y-89193667D01*
X132509309Y-89288905D01*
X132556929Y-89336524D01*
X132652167Y-89384143D01*
X132747405Y-89384143D01*
X132842643Y-89336524D01*
X132890262Y-89288905D01*
X132890262Y-88907952D02*
X132890262Y-89288905D01*
X132937881Y-89336524D01*
X132985500Y-89336524D01*
X133080738Y-89288905D01*
X133128357Y-89193667D01*
X133128357Y-88955571D01*
X133033119Y-88812714D01*
X132890262Y-88717476D01*
X132699786Y-88669857D01*
X132509309Y-88717476D01*
X132366452Y-88812714D01*
X132271214Y-88955571D01*
X132223595Y-89146048D01*
X132271214Y-89336524D01*
X132366452Y-89479381D01*
X132509309Y-89574619D01*
X132699786Y-89622238D01*
X132890262Y-89574619D01*
X133033119Y-89479381D01*
X133556928Y-89479381D02*
X133556928Y-88479381D01*
X133652166Y-89098429D02*
X133937881Y-89479381D01*
X133937881Y-88812714D02*
X133556928Y-89193667D01*
X134795024Y-88812714D02*
X134795024Y-89479381D01*
X134366452Y-88812714D02*
X134366452Y-89336524D01*
X134414071Y-89431762D01*
X134509309Y-89479381D01*
X134652167Y-89479381D01*
X134747405Y-89431762D01*
X134795024Y-89384143D01*
X135699786Y-88812714D02*
X135699786Y-89622238D01*
X135652167Y-89717476D01*
X135604548Y-89765095D01*
X135509309Y-89812714D01*
X135366452Y-89812714D01*
X135271214Y-89765095D01*
X135699786Y-89431762D02*
X135604548Y-89479381D01*
X135414071Y-89479381D01*
X135318833Y-89431762D01*
X135271214Y-89384143D01*
X135223595Y-89288905D01*
X135223595Y-89003190D01*
X135271214Y-88907952D01*
X135318833Y-88860333D01*
X135414071Y-88812714D01*
X135604548Y-88812714D01*
X135699786Y-88860333D01*
X136175976Y-89479381D02*
X136175976Y-88812714D01*
X136175976Y-88479381D02*
X136128357Y-88527000D01*
X136175976Y-88574619D01*
X136223595Y-88527000D01*
X136175976Y-88479381D01*
X136175976Y-88574619D01*
X136652166Y-89479381D02*
X136652166Y-88812714D01*
X136652166Y-88907952D02*
X136699785Y-88860333D01*
X136795023Y-88812714D01*
X136937881Y-88812714D01*
X137033119Y-88860333D01*
X137080738Y-88955571D01*
X137080738Y-89479381D01*
X137080738Y-88955571D02*
X137128357Y-88860333D01*
X137223595Y-88812714D01*
X137366452Y-88812714D01*
X137461690Y-88860333D01*
X137509309Y-88955571D01*
X137509309Y-89479381D01*
X138128356Y-89479381D02*
X138033118Y-89431762D01*
X137985499Y-89384143D01*
X137937880Y-89288905D01*
X137937880Y-89003190D01*
X137985499Y-88907952D01*
X138033118Y-88860333D01*
X138128356Y-88812714D01*
X138271214Y-88812714D01*
X138366452Y-88860333D01*
X138414071Y-88907952D01*
X138461690Y-89003190D01*
X138461690Y-89288905D01*
X138414071Y-89384143D01*
X138366452Y-89431762D01*
X138271214Y-89479381D01*
X138128356Y-89479381D01*
X138747404Y-88812714D02*
X139128356Y-88812714D01*
X138890261Y-88479381D02*
X138890261Y-89336524D01*
X138937880Y-89431762D01*
X139033118Y-89479381D01*
X139128356Y-89479381D01*
X139604547Y-89479381D02*
X139509309Y-89431762D01*
X139461690Y-89384143D01*
X139414071Y-89288905D01*
X139414071Y-89003190D01*
X139461690Y-88907952D01*
X139509309Y-88860333D01*
X139604547Y-88812714D01*
X139747405Y-88812714D01*
X139842643Y-88860333D01*
X139890262Y-88907952D01*
X139937881Y-89003190D01*
X139937881Y-89288905D01*
X139890262Y-89384143D01*
X139842643Y-89431762D01*
X139747405Y-89479381D01*
X139604547Y-89479381D01*
X140556928Y-88479381D02*
X140652167Y-88479381D01*
X140747405Y-88527000D01*
X140795024Y-88574619D01*
X140842643Y-88669857D01*
X140890262Y-88860333D01*
X140890262Y-89098429D01*
X140842643Y-89288905D01*
X140795024Y-89384143D01*
X140747405Y-89431762D01*
X140652167Y-89479381D01*
X140556928Y-89479381D01*
X140461690Y-89431762D01*
X140414071Y-89384143D01*
X140366452Y-89288905D01*
X140318833Y-89098429D01*
X140318833Y-88860333D01*
X140366452Y-88669857D01*
X140414071Y-88574619D01*
X140461690Y-88527000D01*
X140556928Y-88479381D01*
X141223595Y-88479381D02*
X141890262Y-88479381D01*
X141461690Y-89479381D01*
X142795024Y-89479381D02*
X142223595Y-89479381D01*
X142509309Y-89479381D02*
X142509309Y-88479381D01*
X142414071Y-88622238D01*
X142318833Y-88717476D01*
X142223595Y-88765095D01*
X143699786Y-88479381D02*
X143223595Y-88479381D01*
X143175976Y-88955571D01*
X143223595Y-88907952D01*
X143318833Y-88860333D01*
X143556929Y-88860333D01*
X143652167Y-88907952D01*
X143699786Y-88955571D01*
X143747405Y-89050810D01*
X143747405Y-89288905D01*
X143699786Y-89384143D01*
X143652167Y-89431762D01*
X143556929Y-89479381D01*
X143318833Y-89479381D01*
X143223595Y-89431762D01*
X143175976Y-89384143D01*
D13*
X120046905Y-75239571D02*
X120380239Y-75239571D01*
X120523096Y-75763381D02*
X120046905Y-75763381D01*
X120046905Y-74763381D01*
X120523096Y-74763381D01*
X120951667Y-75763381D02*
X120951667Y-74763381D01*
X121523096Y-75763381D01*
X121523096Y-74763381D01*
X122332620Y-75239571D02*
X122475477Y-75287190D01*
X122523096Y-75334810D01*
X122570715Y-75430048D01*
X122570715Y-75572905D01*
X122523096Y-75668143D01*
X122475477Y-75715762D01*
X122380239Y-75763381D01*
X121999286Y-75763381D01*
X121999286Y-74763381D01*
X122332620Y-74763381D01*
X122427858Y-74811000D01*
X122475477Y-74858619D01*
X122523096Y-74953857D01*
X122523096Y-75049095D01*
X122475477Y-75144333D01*
X122427858Y-75191952D01*
X122332620Y-75239571D01*
X121999286Y-75239571D01*
X179855952Y-75477667D02*
X180332143Y-75477667D01*
X179760714Y-75763381D02*
X180094047Y-74763381D01*
X180427381Y-75763381D01*
X181332143Y-75668143D02*
X181284524Y-75715762D01*
X181141667Y-75763381D01*
X181046429Y-75763381D01*
X180903571Y-75715762D01*
X180808333Y-75620524D01*
X180760714Y-75525286D01*
X180713095Y-75334810D01*
X180713095Y-75191952D01*
X180760714Y-75001476D01*
X180808333Y-74906238D01*
X180903571Y-74811000D01*
X181046429Y-74763381D01*
X181141667Y-74763381D01*
X181284524Y-74811000D01*
X181332143Y-74858619D01*
X181617857Y-74763381D02*
X182189286Y-74763381D01*
X181903571Y-75763381D02*
X181903571Y-74763381D01*
D10*
X167455003Y-93643405D02*
X167455003Y-92843405D01*
X167755003Y-93643405D02*
X167755003Y-93224357D01*
X167721669Y-93148167D01*
X167655003Y-93110071D01*
X167555003Y-93110071D01*
X167488336Y-93148167D01*
X167455003Y-93186262D01*
X167988336Y-93110071D02*
X168255002Y-93110071D01*
X168088336Y-92843405D02*
X168088336Y-93529119D01*
X168121669Y-93605310D01*
X168188336Y-93643405D01*
X168255002Y-93643405D01*
X168388336Y-93110071D02*
X168655002Y-93110071D01*
X168488336Y-92843405D02*
X168488336Y-93529119D01*
X168521669Y-93605310D01*
X168588336Y-93643405D01*
X168655002Y-93643405D01*
X168888336Y-93110071D02*
X168888336Y-93910071D01*
X168888336Y-93148167D02*
X168955002Y-93110071D01*
X169088336Y-93110071D01*
X169155002Y-93148167D01*
X169188336Y-93186262D01*
X169221669Y-93262452D01*
X169221669Y-93491024D01*
X169188336Y-93567214D01*
X169155002Y-93605310D01*
X169088336Y-93643405D01*
X168955002Y-93643405D01*
X168888336Y-93605310D01*
X169521669Y-93567214D02*
X169555002Y-93605310D01*
X169521669Y-93643405D01*
X169488335Y-93605310D01*
X169521669Y-93567214D01*
X169521669Y-93643405D01*
X169521669Y-93148167D02*
X169555002Y-93186262D01*
X169521669Y-93224357D01*
X169488335Y-93186262D01*
X169521669Y-93148167D01*
X169521669Y-93224357D01*
X170355002Y-92805310D02*
X169755002Y-93833881D01*
X171088335Y-92805310D02*
X170488335Y-93833881D01*
X171621668Y-93110071D02*
X171621668Y-93757690D01*
X171588334Y-93833881D01*
X171555001Y-93871976D01*
X171488334Y-93910071D01*
X171388334Y-93910071D01*
X171321668Y-93871976D01*
X171621668Y-93605310D02*
X171555001Y-93643405D01*
X171421668Y-93643405D01*
X171355001Y-93605310D01*
X171321668Y-93567214D01*
X171288334Y-93491024D01*
X171288334Y-93262452D01*
X171321668Y-93186262D01*
X171355001Y-93148167D01*
X171421668Y-93110071D01*
X171555001Y-93110071D01*
X171621668Y-93148167D01*
X172255001Y-93643405D02*
X172255001Y-93224357D01*
X172221667Y-93148167D01*
X172155001Y-93110071D01*
X172021667Y-93110071D01*
X171955001Y-93148167D01*
X172255001Y-93605310D02*
X172188334Y-93643405D01*
X172021667Y-93643405D01*
X171955001Y-93605310D01*
X171921667Y-93529119D01*
X171921667Y-93452929D01*
X171955001Y-93376738D01*
X172021667Y-93338643D01*
X172188334Y-93338643D01*
X172255001Y-93300548D01*
X172588334Y-93643405D02*
X172588334Y-93110071D01*
X172588334Y-93186262D02*
X172621667Y-93148167D01*
X172688334Y-93110071D01*
X172788334Y-93110071D01*
X172855000Y-93148167D01*
X172888334Y-93224357D01*
X172888334Y-93643405D01*
X172888334Y-93224357D02*
X172921667Y-93148167D01*
X172988334Y-93110071D01*
X173088334Y-93110071D01*
X173155000Y-93148167D01*
X173188334Y-93224357D01*
X173188334Y-93643405D01*
X173788333Y-93605310D02*
X173721667Y-93643405D01*
X173588333Y-93643405D01*
X173521667Y-93605310D01*
X173488333Y-93529119D01*
X173488333Y-93224357D01*
X173521667Y-93148167D01*
X173588333Y-93110071D01*
X173721667Y-93110071D01*
X173788333Y-93148167D01*
X173821667Y-93224357D01*
X173821667Y-93300548D01*
X173488333Y-93376738D01*
X174121667Y-93643405D02*
X174121667Y-93110071D01*
X174121667Y-93262452D02*
X174155000Y-93186262D01*
X174188333Y-93148167D01*
X174255000Y-93110071D01*
X174321667Y-93110071D01*
X174555000Y-93110071D02*
X174555000Y-93643405D01*
X174555000Y-93186262D02*
X174588333Y-93148167D01*
X174655000Y-93110071D01*
X174755000Y-93110071D01*
X174821666Y-93148167D01*
X174855000Y-93224357D01*
X174855000Y-93643405D01*
X175188333Y-93643405D02*
X175188333Y-93110071D01*
X175188333Y-92843405D02*
X175154999Y-92881500D01*
X175188333Y-92919595D01*
X175221666Y-92881500D01*
X175188333Y-92843405D01*
X175188333Y-92919595D01*
X175821666Y-93110071D02*
X175821666Y-93643405D01*
X175521666Y-93110071D02*
X175521666Y-93529119D01*
X175554999Y-93605310D01*
X175621666Y-93643405D01*
X175721666Y-93643405D01*
X175788332Y-93605310D01*
X175821666Y-93567214D01*
X176154999Y-93643405D02*
X176154999Y-93110071D01*
X176154999Y-93186262D02*
X176188332Y-93148167D01*
X176254999Y-93110071D01*
X176354999Y-93110071D01*
X176421665Y-93148167D01*
X176454999Y-93224357D01*
X176454999Y-93643405D01*
X176454999Y-93224357D02*
X176488332Y-93148167D01*
X176554999Y-93110071D01*
X176654999Y-93110071D01*
X176721665Y-93148167D01*
X176754999Y-93224357D01*
X176754999Y-93643405D01*
X177088332Y-93567214D02*
X177121665Y-93605310D01*
X177088332Y-93643405D01*
X177054998Y-93605310D01*
X177088332Y-93567214D01*
X177088332Y-93643405D01*
X177721665Y-93605310D02*
X177654998Y-93643405D01*
X177521665Y-93643405D01*
X177454998Y-93605310D01*
X177421665Y-93567214D01*
X177388331Y-93491024D01*
X177388331Y-93262452D01*
X177421665Y-93186262D01*
X177454998Y-93148167D01*
X177521665Y-93110071D01*
X177654998Y-93110071D01*
X177721665Y-93148167D01*
X178121665Y-93643405D02*
X178054998Y-93605310D01*
X178021665Y-93567214D01*
X177988331Y-93491024D01*
X177988331Y-93262452D01*
X178021665Y-93186262D01*
X178054998Y-93148167D01*
X178121665Y-93110071D01*
X178221665Y-93110071D01*
X178288331Y-93148167D01*
X178321665Y-93186262D01*
X178354998Y-93262452D01*
X178354998Y-93491024D01*
X178321665Y-93567214D01*
X178288331Y-93605310D01*
X178221665Y-93643405D01*
X178121665Y-93643405D01*
X178654998Y-93643405D02*
X178654998Y-93110071D01*
X178654998Y-93186262D02*
X178688331Y-93148167D01*
X178754998Y-93110071D01*
X178854998Y-93110071D01*
X178921664Y-93148167D01*
X178954998Y-93224357D01*
X178954998Y-93643405D01*
X178954998Y-93224357D02*
X178988331Y-93148167D01*
X179054998Y-93110071D01*
X179154998Y-93110071D01*
X179221664Y-93148167D01*
X179254998Y-93224357D01*
X179254998Y-93643405D01*
D12*
X123842189Y-91336762D02*
X123985046Y-91384381D01*
X124223142Y-91384381D01*
X124318380Y-91336762D01*
X124365999Y-91289143D01*
X124413618Y-91193905D01*
X124413618Y-91098667D01*
X124365999Y-91003429D01*
X124318380Y-90955810D01*
X124223142Y-90908190D01*
X124032665Y-90860571D01*
X123937427Y-90812952D01*
X123889808Y-90765333D01*
X123842189Y-90670095D01*
X123842189Y-90574857D01*
X123889808Y-90479619D01*
X123937427Y-90432000D01*
X124032665Y-90384381D01*
X124270761Y-90384381D01*
X124413618Y-90432000D01*
X125413618Y-91289143D02*
X125365999Y-91336762D01*
X125223142Y-91384381D01*
X125127904Y-91384381D01*
X124985046Y-91336762D01*
X124889808Y-91241524D01*
X124842189Y-91146286D01*
X124794570Y-90955810D01*
X124794570Y-90812952D01*
X124842189Y-90622476D01*
X124889808Y-90527238D01*
X124985046Y-90432000D01*
X125127904Y-90384381D01*
X125223142Y-90384381D01*
X125365999Y-90432000D01*
X125413618Y-90479619D01*
X125794570Y-91336762D02*
X125937427Y-91384381D01*
X126175523Y-91384381D01*
X126270761Y-91336762D01*
X126318380Y-91289143D01*
X126365999Y-91193905D01*
X126365999Y-91098667D01*
X126318380Y-91003429D01*
X126270761Y-90955810D01*
X126175523Y-90908190D01*
X125985046Y-90860571D01*
X125889808Y-90812952D01*
X125842189Y-90765333D01*
X125794570Y-90670095D01*
X125794570Y-90574857D01*
X125842189Y-90479619D01*
X125889808Y-90432000D01*
X125985046Y-90384381D01*
X126223142Y-90384381D01*
X126365999Y-90432000D01*
X126794570Y-91384381D02*
X126794570Y-90384381D01*
X127889808Y-90717714D02*
X128270760Y-90717714D01*
X128032665Y-90384381D02*
X128032665Y-91241524D01*
X128080284Y-91336762D01*
X128175522Y-91384381D01*
X128270760Y-91384381D01*
X129032666Y-91384381D02*
X129032666Y-90860571D01*
X128985047Y-90765333D01*
X128889809Y-90717714D01*
X128699332Y-90717714D01*
X128604094Y-90765333D01*
X129032666Y-91336762D02*
X128937428Y-91384381D01*
X128699332Y-91384381D01*
X128604094Y-91336762D01*
X128556475Y-91241524D01*
X128556475Y-91146286D01*
X128604094Y-91051048D01*
X128699332Y-91003429D01*
X128937428Y-91003429D01*
X129032666Y-90955810D01*
X129508856Y-91384381D02*
X129508856Y-90717714D01*
X129508856Y-90908190D02*
X129556475Y-90812952D01*
X129604094Y-90765333D01*
X129699332Y-90717714D01*
X129794571Y-90717714D01*
X130556476Y-90717714D02*
X130556476Y-91527238D01*
X130508857Y-91622476D01*
X130461238Y-91670095D01*
X130365999Y-91717714D01*
X130223142Y-91717714D01*
X130127904Y-91670095D01*
X130556476Y-91336762D02*
X130461238Y-91384381D01*
X130270761Y-91384381D01*
X130175523Y-91336762D01*
X130127904Y-91289143D01*
X130080285Y-91193905D01*
X130080285Y-90908190D01*
X130127904Y-90812952D01*
X130175523Y-90765333D01*
X130270761Y-90717714D01*
X130461238Y-90717714D01*
X130556476Y-90765333D01*
X131413619Y-91336762D02*
X131318381Y-91384381D01*
X131127904Y-91384381D01*
X131032666Y-91336762D01*
X130985047Y-91241524D01*
X130985047Y-90860571D01*
X131032666Y-90765333D01*
X131127904Y-90717714D01*
X131318381Y-90717714D01*
X131413619Y-90765333D01*
X131461238Y-90860571D01*
X131461238Y-90955810D01*
X130985047Y-91051048D01*
X131746952Y-90717714D02*
X132127904Y-90717714D01*
X131889809Y-90384381D02*
X131889809Y-91241524D01*
X131937428Y-91336762D01*
X132032666Y-91384381D01*
X132127904Y-91384381D01*
X133651715Y-91384381D02*
X133651715Y-90384381D01*
X133651715Y-91336762D02*
X133556477Y-91384381D01*
X133366000Y-91384381D01*
X133270762Y-91336762D01*
X133223143Y-91289143D01*
X133175524Y-91193905D01*
X133175524Y-90908190D01*
X133223143Y-90812952D01*
X133270762Y-90765333D01*
X133366000Y-90717714D01*
X133556477Y-90717714D01*
X133651715Y-90765333D01*
X134508858Y-91336762D02*
X134413620Y-91384381D01*
X134223143Y-91384381D01*
X134127905Y-91336762D01*
X134080286Y-91241524D01*
X134080286Y-90860571D01*
X134127905Y-90765333D01*
X134223143Y-90717714D01*
X134413620Y-90717714D01*
X134508858Y-90765333D01*
X134556477Y-90860571D01*
X134556477Y-90955810D01*
X134080286Y-91051048D01*
X134889810Y-90717714D02*
X135127905Y-91384381D01*
X135366001Y-90717714D01*
X135746953Y-91384381D02*
X135746953Y-90717714D01*
X135746953Y-90384381D02*
X135699334Y-90432000D01*
X135746953Y-90479619D01*
X135794572Y-90432000D01*
X135746953Y-90384381D01*
X135746953Y-90479619D01*
X136651715Y-91336762D02*
X136556477Y-91384381D01*
X136366000Y-91384381D01*
X136270762Y-91336762D01*
X136223143Y-91289143D01*
X136175524Y-91193905D01*
X136175524Y-90908190D01*
X136223143Y-90812952D01*
X136270762Y-90765333D01*
X136366000Y-90717714D01*
X136556477Y-90717714D01*
X136651715Y-90765333D01*
X137461239Y-91336762D02*
X137366001Y-91384381D01*
X137175524Y-91384381D01*
X137080286Y-91336762D01*
X137032667Y-91241524D01*
X137032667Y-90860571D01*
X137080286Y-90765333D01*
X137175524Y-90717714D01*
X137366001Y-90717714D01*
X137461239Y-90765333D01*
X137508858Y-90860571D01*
X137508858Y-90955810D01*
X137032667Y-91051048D01*
X139080287Y-91336762D02*
X138985049Y-91384381D01*
X138794572Y-91384381D01*
X138699334Y-91336762D01*
X138651715Y-91241524D01*
X138651715Y-90860571D01*
X138699334Y-90765333D01*
X138794572Y-90717714D01*
X138985049Y-90717714D01*
X139080287Y-90765333D01*
X139127906Y-90860571D01*
X139127906Y-90955810D01*
X138651715Y-91051048D01*
X139556477Y-91384381D02*
X139556477Y-90717714D01*
X139556477Y-90812952D02*
X139604096Y-90765333D01*
X139699334Y-90717714D01*
X139842192Y-90717714D01*
X139937430Y-90765333D01*
X139985049Y-90860571D01*
X139985049Y-91384381D01*
X139985049Y-90860571D02*
X140032668Y-90765333D01*
X140127906Y-90717714D01*
X140270763Y-90717714D01*
X140366001Y-90765333D01*
X140413620Y-90860571D01*
X140413620Y-91384381D01*
X141318382Y-90717714D02*
X141318382Y-91384381D01*
X140889810Y-90717714D02*
X140889810Y-91241524D01*
X140937429Y-91336762D01*
X141032667Y-91384381D01*
X141175525Y-91384381D01*
X141270763Y-91336762D01*
X141318382Y-91289143D01*
X141937429Y-91384381D02*
X141842191Y-91336762D01*
X141794572Y-91241524D01*
X141794572Y-90384381D01*
X142746954Y-91384381D02*
X142746954Y-90860571D01*
X142699335Y-90765333D01*
X142604097Y-90717714D01*
X142413620Y-90717714D01*
X142318382Y-90765333D01*
X142746954Y-91336762D02*
X142651716Y-91384381D01*
X142413620Y-91384381D01*
X142318382Y-91336762D01*
X142270763Y-91241524D01*
X142270763Y-91146286D01*
X142318382Y-91051048D01*
X142413620Y-91003429D01*
X142651716Y-91003429D01*
X142746954Y-90955810D01*
X143080287Y-90717714D02*
X143461239Y-90717714D01*
X143223144Y-90384381D02*
X143223144Y-91241524D01*
X143270763Y-91336762D01*
X143366001Y-91384381D01*
X143461239Y-91384381D01*
X143937430Y-91384381D02*
X143842192Y-91336762D01*
X143794573Y-91289143D01*
X143746954Y-91193905D01*
X143746954Y-90908190D01*
X143794573Y-90812952D01*
X143842192Y-90765333D01*
X143937430Y-90717714D01*
X144080288Y-90717714D01*
X144175526Y-90765333D01*
X144223145Y-90812952D01*
X144270764Y-90908190D01*
X144270764Y-91193905D01*
X144223145Y-91289143D01*
X144175526Y-91336762D01*
X144080288Y-91384381D01*
X143937430Y-91384381D01*
X144699335Y-91384381D02*
X144699335Y-90717714D01*
X144699335Y-90908190D02*
X144746954Y-90812952D01*
X144794573Y-90765333D01*
X144889811Y-90717714D01*
X144985050Y-90717714D01*
D13*
X165893714Y-111921857D02*
X165893714Y-110721857D01*
X166350857Y-110721857D01*
X166465143Y-110779000D01*
X166522286Y-110836143D01*
X166579429Y-110950429D01*
X166579429Y-111121857D01*
X166522286Y-111236143D01*
X166465143Y-111293286D01*
X166350857Y-111350429D01*
X165893714Y-111350429D01*
X167779429Y-111807571D02*
X167722286Y-111864714D01*
X167550857Y-111921857D01*
X167436571Y-111921857D01*
X167265143Y-111864714D01*
X167150857Y-111750429D01*
X167093714Y-111636143D01*
X167036571Y-111407571D01*
X167036571Y-111236143D01*
X167093714Y-111007571D01*
X167150857Y-110893286D01*
X167265143Y-110779000D01*
X167436571Y-110721857D01*
X167550857Y-110721857D01*
X167722286Y-110779000D01*
X167779429Y-110836143D01*
X168693714Y-111293286D02*
X168865143Y-111350429D01*
X168922286Y-111407571D01*
X168979429Y-111521857D01*
X168979429Y-111693286D01*
X168922286Y-111807571D01*
X168865143Y-111864714D01*
X168750857Y-111921857D01*
X168293714Y-111921857D01*
X168293714Y-110721857D01*
X168693714Y-110721857D01*
X168808000Y-110779000D01*
X168865143Y-110836143D01*
X168922286Y-110950429D01*
X168922286Y-111064714D01*
X168865143Y-111179000D01*
X168808000Y-111236143D01*
X168693714Y-111293286D01*
X168293714Y-111293286D01*
X170236572Y-110721857D02*
X170636572Y-111921857D01*
X171036572Y-110721857D01*
X171893714Y-111864714D02*
X171779428Y-111921857D01*
X171550857Y-111921857D01*
X171436571Y-111864714D01*
X171379428Y-111750429D01*
X171379428Y-111293286D01*
X171436571Y-111179000D01*
X171550857Y-111121857D01*
X171779428Y-111121857D01*
X171893714Y-111179000D01*
X171950857Y-111293286D01*
X171950857Y-111407571D01*
X171379428Y-111521857D01*
X172465142Y-111921857D02*
X172465142Y-111121857D01*
X172465142Y-111350429D02*
X172522285Y-111236143D01*
X172579428Y-111179000D01*
X172693714Y-111121857D01*
X172807999Y-111121857D01*
X173207999Y-111807571D02*
X173265142Y-111864714D01*
X173207999Y-111921857D01*
X173150856Y-111864714D01*
X173207999Y-111807571D01*
X173207999Y-111921857D01*
X173722285Y-110836143D02*
X173779428Y-110779000D01*
X173893714Y-110721857D01*
X174179428Y-110721857D01*
X174293714Y-110779000D01*
X174350857Y-110836143D01*
X174408000Y-110950429D01*
X174408000Y-111064714D01*
X174350857Y-111236143D01*
X173665143Y-111921857D01*
X174408000Y-111921857D01*
X174922285Y-111807571D02*
X174979428Y-111864714D01*
X174922285Y-111921857D01*
X174865142Y-111864714D01*
X174922285Y-111807571D01*
X174922285Y-111921857D01*
X175722286Y-110721857D02*
X175836571Y-110721857D01*
X175950857Y-110779000D01*
X176008000Y-110836143D01*
X176065143Y-110950429D01*
X176122286Y-111179000D01*
X176122286Y-111464714D01*
X176065143Y-111693286D01*
X176008000Y-111807571D01*
X175950857Y-111864714D01*
X175836571Y-111921857D01*
X175722286Y-111921857D01*
X175608000Y-111864714D01*
X175550857Y-111807571D01*
X175493714Y-111693286D01*
X175436571Y-111464714D01*
X175436571Y-111179000D01*
X175493714Y-110950429D01*
X175550857Y-110836143D01*
X175608000Y-110779000D01*
X175722286Y-110721857D01*
X176636571Y-111921857D02*
X176636571Y-110721857D01*
X176636571Y-111179000D02*
X176750857Y-111121857D01*
X176979428Y-111121857D01*
X177093714Y-111179000D01*
X177150857Y-111236143D01*
X177208000Y-111350429D01*
X177208000Y-111693286D01*
X177150857Y-111807571D01*
X177093714Y-111864714D01*
X176979428Y-111921857D01*
X176750857Y-111921857D01*
X176636571Y-111864714D01*
X178179428Y-111864714D02*
X178065142Y-111921857D01*
X177836571Y-111921857D01*
X177722285Y-111864714D01*
X177665142Y-111750429D01*
X177665142Y-111293286D01*
X177722285Y-111179000D01*
X177836571Y-111121857D01*
X178065142Y-111121857D01*
X178179428Y-111179000D01*
X178236571Y-111293286D01*
X178236571Y-111407571D01*
X177665142Y-111521857D01*
X178579428Y-111121857D02*
X179036571Y-111121857D01*
X178750856Y-110721857D02*
X178750856Y-111750429D01*
X178807999Y-111864714D01*
X178922285Y-111921857D01*
X179036571Y-111921857D01*
X179950856Y-111921857D02*
X179950856Y-111293286D01*
X179893713Y-111179000D01*
X179779427Y-111121857D01*
X179550856Y-111121857D01*
X179436570Y-111179000D01*
X179950856Y-111864714D02*
X179836570Y-111921857D01*
X179550856Y-111921857D01*
X179436570Y-111864714D01*
X179379427Y-111750429D01*
X179379427Y-111636143D01*
X179436570Y-111521857D01*
X179550856Y-111464714D01*
X179836570Y-111464714D01*
X179950856Y-111407571D01*
X173990000Y-115570000D02*
X176530000Y-115570000D01*
X173990000Y-113030000D02*
X173990000Y-115570000D01*
X125730000Y-113030000D02*
X176530000Y-113030000D01*
X125730000Y-118110000D02*
X125730000Y-113030000D01*
X176530000Y-118110000D02*
X125730000Y-118110000D01*
X176530000Y-113030000D02*
X176530000Y-118110000D01*
D12*
X123750000Y-75100000D02*
X123750000Y-63100000D01*
X123750000Y-63100000D02*
X178250000Y-63100000D01*
X123750000Y-75100000D02*
X178250000Y-75100000D01*
X178250000Y-75100000D02*
X178250000Y-63100000D01*
X149733000Y-101346000D02*
G75*
G03X149733000Y-101346000I-254000J0D01*
G01*
X150241000Y-100584000D02*
X150241000Y-107696000D01*
X150241000Y-107696000D02*
X138049000Y-107696000D01*
X138049000Y-107696000D02*
X138049000Y-100584000D01*
X138049000Y-100584000D02*
X150241000Y-100584000D01*
X167005000Y-106934000D02*
G75*
G03X167005000Y-106934000I-254000J0D01*
G01*
X165989000Y-107696000D02*
X165989000Y-100584000D01*
X165989000Y-100584000D02*
X178181000Y-100584000D01*
X178181000Y-100584000D02*
X178181000Y-107696000D01*
X178181000Y-107696000D02*
X165989000Y-107696000D01*
X153035000Y-106934000D02*
G75*
G03X153035000Y-106934000I-254000J0D01*
G01*
X152019000Y-107696000D02*
X152019000Y-100584000D01*
X152019000Y-100584000D02*
X164211000Y-100584000D01*
X164211000Y-100584000D02*
X164211000Y-107696000D01*
X164211000Y-107696000D02*
X152019000Y-107696000D01*
X135763000Y-101346000D02*
G75*
G03X135763000Y-101346000I-254000J0D01*
G01*
X136271000Y-100584000D02*
X136271000Y-107696000D01*
X136271000Y-107696000D02*
X124079000Y-107696000D01*
X124079000Y-107696000D02*
X124079000Y-100584000D01*
X124079000Y-100584000D02*
X136271000Y-100584000D01*
X179705000Y-94615000D02*
X182245000Y-94615000D01*
X182245000Y-94615000D02*
X182245000Y-89535000D01*
X182245000Y-89535000D02*
X179705000Y-89535000D01*
X179705000Y-89535000D02*
X179705000Y-94615000D01*
X181975000Y-71390000D02*
X181725000Y-71390000D01*
X181725000Y-71390000D02*
X181725000Y-71890000D01*
X181725000Y-71890000D02*
X181725000Y-72140000D01*
X181725000Y-72140000D02*
X180225000Y-72140000D01*
X180225000Y-72140000D02*
X180225000Y-71390000D01*
X180225000Y-71390000D02*
X179975000Y-71390000D01*
X179975000Y-71390000D02*
G75*
G03X179975000Y-73390000I1000000J-1000000D01*
G01*
X181975000Y-73390000D02*
G75*
G03X181975000Y-71390000I-1000000J1000000D01*
G01*
X122285000Y-71390000D02*
X122035000Y-71390000D01*
X122035000Y-71390000D02*
X122035000Y-71890000D01*
X122035000Y-71890000D02*
X122035000Y-72140000D01*
X122035000Y-72140000D02*
X120535000Y-72140000D01*
X120535000Y-72140000D02*
X120535000Y-71390000D01*
X120535000Y-71390000D02*
X120285000Y-71390000D01*
X120285000Y-71390000D02*
G75*
G03X120285000Y-73390000I1000000J-1000000D01*
G01*
X122285000Y-73390000D02*
G75*
G03X122285000Y-71390000I-1000000J1000000D01*
G01*
D14*
G36*
X129853609Y-93024246D02*
X130238645Y-93042355D01*
X130534633Y-93083499D01*
X130748372Y-93163621D01*
X130886661Y-93298664D01*
X130956298Y-93504571D01*
X130964082Y-93797283D01*
X130916810Y-94192745D01*
X130821283Y-94706898D01*
X130739030Y-95100588D01*
X130659206Y-95477496D01*
X130591925Y-95800023D01*
X130542749Y-96041119D01*
X130517243Y-96173733D01*
X130514912Y-96190205D01*
X130447887Y-96212140D01*
X130277382Y-96224689D01*
X130160059Y-96225951D01*
X129921856Y-96228530D01*
X129592422Y-96237796D01*
X129229697Y-96251988D01*
X129095500Y-96258291D01*
X128766851Y-96266629D01*
X128479983Y-96259603D01*
X128277897Y-96238892D01*
X128222590Y-96224148D01*
X128022249Y-96068262D01*
X127924427Y-95810957D01*
X127925514Y-95486205D01*
X128452603Y-95486205D01*
X128510306Y-95690597D01*
X128550323Y-95740033D01*
X128708351Y-95813825D01*
X128962543Y-95848690D01*
X129265581Y-95847388D01*
X129570150Y-95812676D01*
X129828934Y-95747314D01*
X129992768Y-95655935D01*
X130115320Y-95467355D01*
X130188185Y-95228544D01*
X130200156Y-94998915D01*
X130145827Y-94844472D01*
X130009525Y-94768011D01*
X129774186Y-94711845D01*
X129489501Y-94681964D01*
X129205158Y-94684360D01*
X129027611Y-94709646D01*
X128799150Y-94819563D01*
X128615107Y-95011652D01*
X128493564Y-95246878D01*
X128452603Y-95486205D01*
X127925514Y-95486205D01*
X127925611Y-95457423D01*
X128018544Y-95050763D01*
X128183459Y-94711737D01*
X128402511Y-94470104D01*
X128573830Y-94376422D01*
X128827507Y-94320723D01*
X129154534Y-94290869D01*
X129505250Y-94286655D01*
X129829992Y-94307875D01*
X130079098Y-94354325D01*
X130152402Y-94382939D01*
X130292310Y-94444108D01*
X130357105Y-94407562D01*
X130395196Y-94261082D01*
X130445191Y-93894658D01*
X130421461Y-93644299D01*
X130321195Y-93494561D01*
X130248578Y-93455210D01*
X129918366Y-93380510D01*
X129581377Y-93388697D01*
X129277236Y-93470490D01*
X129045570Y-93616608D01*
X128944080Y-93760731D01*
X128852126Y-93915303D01*
X128712631Y-93974027D01*
X128595815Y-93980000D01*
X128426139Y-93969585D01*
X128370590Y-93919295D01*
X128390736Y-93811912D01*
X128488388Y-93531423D01*
X128585748Y-93350830D01*
X128712703Y-93223695D01*
X128813491Y-93155016D01*
X128943259Y-93085679D01*
X129087159Y-93042760D01*
X129281077Y-93021746D01*
X129560904Y-93018127D01*
X129853609Y-93024246D01*
X129853609Y-93024246D01*
G37*
X129853609Y-93024246D02*
X130238645Y-93042355D01*
X130534633Y-93083499D01*
X130748372Y-93163621D01*
X130886661Y-93298664D01*
X130956298Y-93504571D01*
X130964082Y-93797283D01*
X130916810Y-94192745D01*
X130821283Y-94706898D01*
X130739030Y-95100588D01*
X130659206Y-95477496D01*
X130591925Y-95800023D01*
X130542749Y-96041119D01*
X130517243Y-96173733D01*
X130514912Y-96190205D01*
X130447887Y-96212140D01*
X130277382Y-96224689D01*
X130160059Y-96225951D01*
X129921856Y-96228530D01*
X129592422Y-96237796D01*
X129229697Y-96251988D01*
X129095500Y-96258291D01*
X128766851Y-96266629D01*
X128479983Y-96259603D01*
X128277897Y-96238892D01*
X128222590Y-96224148D01*
X128022249Y-96068262D01*
X127924427Y-95810957D01*
X127925514Y-95486205D01*
X128452603Y-95486205D01*
X128510306Y-95690597D01*
X128550323Y-95740033D01*
X128708351Y-95813825D01*
X128962543Y-95848690D01*
X129265581Y-95847388D01*
X129570150Y-95812676D01*
X129828934Y-95747314D01*
X129992768Y-95655935D01*
X130115320Y-95467355D01*
X130188185Y-95228544D01*
X130200156Y-94998915D01*
X130145827Y-94844472D01*
X130009525Y-94768011D01*
X129774186Y-94711845D01*
X129489501Y-94681964D01*
X129205158Y-94684360D01*
X129027611Y-94709646D01*
X128799150Y-94819563D01*
X128615107Y-95011652D01*
X128493564Y-95246878D01*
X128452603Y-95486205D01*
X127925514Y-95486205D01*
X127925611Y-95457423D01*
X128018544Y-95050763D01*
X128183459Y-94711737D01*
X128402511Y-94470104D01*
X128573830Y-94376422D01*
X128827507Y-94320723D01*
X129154534Y-94290869D01*
X129505250Y-94286655D01*
X129829992Y-94307875D01*
X130079098Y-94354325D01*
X130152402Y-94382939D01*
X130292310Y-94444108D01*
X130357105Y-94407562D01*
X130395196Y-94261082D01*
X130445191Y-93894658D01*
X130421461Y-93644299D01*
X130321195Y-93494561D01*
X130248578Y-93455210D01*
X129918366Y-93380510D01*
X129581377Y-93388697D01*
X129277236Y-93470490D01*
X129045570Y-93616608D01*
X128944080Y-93760731D01*
X128852126Y-93915303D01*
X128712631Y-93974027D01*
X128595815Y-93980000D01*
X128426139Y-93969585D01*
X128370590Y-93919295D01*
X128390736Y-93811912D01*
X128488388Y-93531423D01*
X128585748Y-93350830D01*
X128712703Y-93223695D01*
X128813491Y-93155016D01*
X128943259Y-93085679D01*
X129087159Y-93042760D01*
X129281077Y-93021746D01*
X129560904Y-93018127D01*
X129853609Y-93024246D01*
G36*
X133928318Y-91676143D02*
X134315524Y-91689048D01*
X134583836Y-91706092D01*
X134763762Y-91732999D01*
X134885812Y-91775491D01*
X134980495Y-91839290D01*
X135028823Y-91882581D01*
X135142078Y-92012496D01*
X135200241Y-92162908D01*
X135220254Y-92388047D01*
X135221383Y-92498905D01*
X135221383Y-92934118D01*
X134607108Y-92934118D01*
X134654782Y-92679991D01*
X134652014Y-92443074D01*
X134537474Y-92272438D01*
X134304368Y-92165044D01*
X133945901Y-92117857D01*
X133455279Y-92127840D01*
X133424158Y-92129999D01*
X133038407Y-92178565D01*
X132769651Y-92272638D01*
X132587654Y-92432306D01*
X132462177Y-92677654D01*
X132423944Y-92794436D01*
X132353585Y-93114730D01*
X132368389Y-93351162D01*
X132481114Y-93515030D01*
X132704518Y-93617634D01*
X133051359Y-93670271D01*
X133428442Y-93684013D01*
X133964070Y-93711388D01*
X134363176Y-93785290D01*
X134631672Y-93907125D01*
X134723003Y-93991565D01*
X134801338Y-94116741D01*
X134836345Y-94271360D01*
X134835353Y-94503117D01*
X134824527Y-94652353D01*
X134746560Y-95204707D01*
X134611833Y-95628303D01*
X134413729Y-95935130D01*
X134145630Y-96137179D01*
X133965817Y-96208026D01*
X133787744Y-96238919D01*
X133506173Y-96263066D01*
X133158993Y-96279858D01*
X132784097Y-96288685D01*
X132419378Y-96288937D01*
X132102726Y-96280003D01*
X131872034Y-96261275D01*
X131784912Y-96243123D01*
X131536867Y-96096498D01*
X131391574Y-95865127D01*
X131337603Y-95529227D01*
X131336677Y-95467205D01*
X131345055Y-95148103D01*
X131379996Y-94950072D01*
X131456208Y-94845241D01*
X131588397Y-94805741D01*
X131687856Y-94801765D01*
X131948344Y-94801765D01*
X131900029Y-95156618D01*
X131880343Y-95431108D01*
X131923381Y-95618311D01*
X132049930Y-95735938D01*
X132280773Y-95801700D01*
X132636697Y-95833311D01*
X132697289Y-95836003D01*
X133036861Y-95837691D01*
X133362825Y-95818657D01*
X133612832Y-95782892D01*
X133643350Y-95775421D01*
X133861138Y-95696476D01*
X133995298Y-95574845D01*
X134098464Y-95376182D01*
X134238887Y-94979732D01*
X134289737Y-94659482D01*
X134248686Y-94433149D01*
X134227086Y-94397713D01*
X134158087Y-94336830D01*
X134036277Y-94290777D01*
X133835903Y-94254485D01*
X133531212Y-94222880D01*
X133219325Y-94199242D01*
X132791638Y-94165957D01*
X132483970Y-94129885D01*
X132267020Y-94082998D01*
X132111488Y-94017270D01*
X131988072Y-93924673D01*
X131904661Y-93839085D01*
X131808965Y-93634913D01*
X131781496Y-93340723D01*
X131814540Y-92995173D01*
X131900386Y-92636920D01*
X132031321Y-92304622D01*
X132199632Y-92036936D01*
X132281227Y-91951634D01*
X132483354Y-91822376D01*
X132762977Y-91734749D01*
X133139786Y-91685458D01*
X133633469Y-91671210D01*
X133928318Y-91676143D01*
X133928318Y-91676143D01*
G37*
X133928318Y-91676143D02*
X134315524Y-91689048D01*
X134583836Y-91706092D01*
X134763762Y-91732999D01*
X134885812Y-91775491D01*
X134980495Y-91839290D01*
X135028823Y-91882581D01*
X135142078Y-92012496D01*
X135200241Y-92162908D01*
X135220254Y-92388047D01*
X135221383Y-92498905D01*
X135221383Y-92934118D01*
X134607108Y-92934118D01*
X134654782Y-92679991D01*
X134652014Y-92443074D01*
X134537474Y-92272438D01*
X134304368Y-92165044D01*
X133945901Y-92117857D01*
X133455279Y-92127840D01*
X133424158Y-92129999D01*
X133038407Y-92178565D01*
X132769651Y-92272638D01*
X132587654Y-92432306D01*
X132462177Y-92677654D01*
X132423944Y-92794436D01*
X132353585Y-93114730D01*
X132368389Y-93351162D01*
X132481114Y-93515030D01*
X132704518Y-93617634D01*
X133051359Y-93670271D01*
X133428442Y-93684013D01*
X133964070Y-93711388D01*
X134363176Y-93785290D01*
X134631672Y-93907125D01*
X134723003Y-93991565D01*
X134801338Y-94116741D01*
X134836345Y-94271360D01*
X134835353Y-94503117D01*
X134824527Y-94652353D01*
X134746560Y-95204707D01*
X134611833Y-95628303D01*
X134413729Y-95935130D01*
X134145630Y-96137179D01*
X133965817Y-96208026D01*
X133787744Y-96238919D01*
X133506173Y-96263066D01*
X133158993Y-96279858D01*
X132784097Y-96288685D01*
X132419378Y-96288937D01*
X132102726Y-96280003D01*
X131872034Y-96261275D01*
X131784912Y-96243123D01*
X131536867Y-96096498D01*
X131391574Y-95865127D01*
X131337603Y-95529227D01*
X131336677Y-95467205D01*
X131345055Y-95148103D01*
X131379996Y-94950072D01*
X131456208Y-94845241D01*
X131588397Y-94805741D01*
X131687856Y-94801765D01*
X131948344Y-94801765D01*
X131900029Y-95156618D01*
X131880343Y-95431108D01*
X131923381Y-95618311D01*
X132049930Y-95735938D01*
X132280773Y-95801700D01*
X132636697Y-95833311D01*
X132697289Y-95836003D01*
X133036861Y-95837691D01*
X133362825Y-95818657D01*
X133612832Y-95782892D01*
X133643350Y-95775421D01*
X133861138Y-95696476D01*
X133995298Y-95574845D01*
X134098464Y-95376182D01*
X134238887Y-94979732D01*
X134289737Y-94659482D01*
X134248686Y-94433149D01*
X134227086Y-94397713D01*
X134158087Y-94336830D01*
X134036277Y-94290777D01*
X133835903Y-94254485D01*
X133531212Y-94222880D01*
X133219325Y-94199242D01*
X132791638Y-94165957D01*
X132483970Y-94129885D01*
X132267020Y-94082998D01*
X132111488Y-94017270D01*
X131988072Y-93924673D01*
X131904661Y-93839085D01*
X131808965Y-93634913D01*
X131781496Y-93340723D01*
X131814540Y-92995173D01*
X131900386Y-92636920D01*
X132031321Y-92304622D01*
X132199632Y-92036936D01*
X132281227Y-91951634D01*
X132483354Y-91822376D01*
X132762977Y-91734749D01*
X133139786Y-91685458D01*
X133633469Y-91671210D01*
X133928318Y-91676143D01*
G36*
X139111835Y-91882489D02*
X139269368Y-92109962D01*
X139333896Y-92399290D01*
X139309850Y-92777368D01*
X139283515Y-92924779D01*
X139233754Y-93083161D01*
X139136023Y-93147292D01*
X138974286Y-93158235D01*
X138711748Y-93158235D01*
X138755022Y-92792851D01*
X138774805Y-92542590D01*
X138751246Y-92367066D01*
X138663729Y-92253152D01*
X138491642Y-92187719D01*
X138214370Y-92157637D01*
X137811301Y-92149780D01*
X137745194Y-92149706D01*
X137317181Y-92156381D01*
X136987041Y-92188304D01*
X136737007Y-92263318D01*
X136549312Y-92399268D01*
X136406189Y-92613998D01*
X136289871Y-92925352D01*
X136182592Y-93351174D01*
X136085129Y-93817000D01*
X135980638Y-94344819D01*
X135906874Y-94747545D01*
X135862281Y-95045966D01*
X135845299Y-95260870D01*
X135854373Y-95413047D01*
X135887945Y-95523285D01*
X135944456Y-95612373D01*
X135950091Y-95619419D01*
X136047673Y-95712889D01*
X136181241Y-95771863D01*
X136390561Y-95808165D01*
X136658549Y-95830080D01*
X137199894Y-95841030D01*
X137634171Y-95799352D01*
X137947757Y-95706911D01*
X138060196Y-95638111D01*
X138169647Y-95492466D01*
X138271680Y-95265489D01*
X138310665Y-95137941D01*
X138373316Y-94917802D01*
X138441373Y-94803880D01*
X138552698Y-94756549D01*
X138690248Y-94740673D01*
X138975204Y-94716935D01*
X138924353Y-95002144D01*
X138824346Y-95353871D01*
X138663795Y-95696013D01*
X138470474Y-95976577D01*
X138335052Y-96105235D01*
X138235980Y-96166267D01*
X138115779Y-96209836D01*
X137947277Y-96239553D01*
X137703304Y-96259033D01*
X137356688Y-96271888D01*
X137027699Y-96279082D01*
X136570899Y-96284473D01*
X136236604Y-96279565D01*
X135998138Y-96262366D01*
X135828826Y-96230883D01*
X135701991Y-96183124D01*
X135694797Y-96179518D01*
X135508140Y-96048974D01*
X135377729Y-95865875D01*
X135302201Y-95614783D01*
X135280190Y-95280260D01*
X135310333Y-94846866D01*
X135391265Y-94299164D01*
X135484747Y-93802723D01*
X135621639Y-93178431D01*
X135765244Y-92687473D01*
X135933438Y-92314189D01*
X136144098Y-92042918D01*
X136415099Y-91857999D01*
X136764318Y-91743773D01*
X137209630Y-91684579D01*
X137768912Y-91664757D01*
X137925934Y-91664118D01*
X138893464Y-91664118D01*
X139111835Y-91882489D01*
X139111835Y-91882489D01*
G37*
X139111835Y-91882489D02*
X139269368Y-92109962D01*
X139333896Y-92399290D01*
X139309850Y-92777368D01*
X139283515Y-92924779D01*
X139233754Y-93083161D01*
X139136023Y-93147292D01*
X138974286Y-93158235D01*
X138711748Y-93158235D01*
X138755022Y-92792851D01*
X138774805Y-92542590D01*
X138751246Y-92367066D01*
X138663729Y-92253152D01*
X138491642Y-92187719D01*
X138214370Y-92157637D01*
X137811301Y-92149780D01*
X137745194Y-92149706D01*
X137317181Y-92156381D01*
X136987041Y-92188304D01*
X136737007Y-92263318D01*
X136549312Y-92399268D01*
X136406189Y-92613998D01*
X136289871Y-92925352D01*
X136182592Y-93351174D01*
X136085129Y-93817000D01*
X135980638Y-94344819D01*
X135906874Y-94747545D01*
X135862281Y-95045966D01*
X135845299Y-95260870D01*
X135854373Y-95413047D01*
X135887945Y-95523285D01*
X135944456Y-95612373D01*
X135950091Y-95619419D01*
X136047673Y-95712889D01*
X136181241Y-95771863D01*
X136390561Y-95808165D01*
X136658549Y-95830080D01*
X137199894Y-95841030D01*
X137634171Y-95799352D01*
X137947757Y-95706911D01*
X138060196Y-95638111D01*
X138169647Y-95492466D01*
X138271680Y-95265489D01*
X138310665Y-95137941D01*
X138373316Y-94917802D01*
X138441373Y-94803880D01*
X138552698Y-94756549D01*
X138690248Y-94740673D01*
X138975204Y-94716935D01*
X138924353Y-95002144D01*
X138824346Y-95353871D01*
X138663795Y-95696013D01*
X138470474Y-95976577D01*
X138335052Y-96105235D01*
X138235980Y-96166267D01*
X138115779Y-96209836D01*
X137947277Y-96239553D01*
X137703304Y-96259033D01*
X137356688Y-96271888D01*
X137027699Y-96279082D01*
X136570899Y-96284473D01*
X136236604Y-96279565D01*
X135998138Y-96262366D01*
X135828826Y-96230883D01*
X135701991Y-96183124D01*
X135694797Y-96179518D01*
X135508140Y-96048974D01*
X135377729Y-95865875D01*
X135302201Y-95614783D01*
X135280190Y-95280260D01*
X135310333Y-94846866D01*
X135391265Y-94299164D01*
X135484747Y-93802723D01*
X135621639Y-93178431D01*
X135765244Y-92687473D01*
X135933438Y-92314189D01*
X136144098Y-92042918D01*
X136415099Y-91857999D01*
X136764318Y-91743773D01*
X137209630Y-91684579D01*
X137768912Y-91664757D01*
X137925934Y-91664118D01*
X138893464Y-91664118D01*
X139111835Y-91882489D01*
G36*
X141697730Y-91676143D02*
X142084936Y-91689048D01*
X142353247Y-91706092D01*
X142533174Y-91732999D01*
X142655224Y-91775491D01*
X142749906Y-91839290D01*
X142798235Y-91882581D01*
X142911490Y-92012496D01*
X142969653Y-92162908D01*
X142989666Y-92388047D01*
X142990795Y-92498905D01*
X142990795Y-92934118D01*
X142376519Y-92934118D01*
X142424194Y-92679991D01*
X142421426Y-92443074D01*
X142306886Y-92272438D01*
X142073780Y-92165044D01*
X141715313Y-92117857D01*
X141224690Y-92127840D01*
X141193570Y-92129999D01*
X140807819Y-92178565D01*
X140539063Y-92272638D01*
X140357065Y-92432306D01*
X140231589Y-92677654D01*
X140193355Y-92794436D01*
X140122996Y-93114730D01*
X140137801Y-93351162D01*
X140250526Y-93515030D01*
X140473930Y-93617634D01*
X140820771Y-93670271D01*
X141197853Y-93684013D01*
X141733482Y-93711388D01*
X142132588Y-93785290D01*
X142401084Y-93907125D01*
X142492414Y-93991565D01*
X142570749Y-94116741D01*
X142605757Y-94271360D01*
X142604765Y-94503117D01*
X142593939Y-94652353D01*
X142515971Y-95204707D01*
X142381245Y-95628303D01*
X142183141Y-95935130D01*
X141915042Y-96137179D01*
X141735228Y-96208026D01*
X141557156Y-96238919D01*
X141275584Y-96263066D01*
X140928405Y-96279858D01*
X140553509Y-96288685D01*
X140188789Y-96288937D01*
X139872138Y-96280003D01*
X139641445Y-96261275D01*
X139554324Y-96243123D01*
X139306279Y-96096498D01*
X139160985Y-95865127D01*
X139107015Y-95529227D01*
X139106089Y-95467205D01*
X139114467Y-95148103D01*
X139149408Y-94950072D01*
X139225619Y-94845241D01*
X139357809Y-94805741D01*
X139457268Y-94801765D01*
X139717756Y-94801765D01*
X139669441Y-95156618D01*
X139649754Y-95431108D01*
X139692793Y-95618311D01*
X139819341Y-95735938D01*
X140050185Y-95801700D01*
X140406109Y-95833311D01*
X140466701Y-95836003D01*
X140806273Y-95837691D01*
X141132237Y-95818657D01*
X141382244Y-95782892D01*
X141412762Y-95775421D01*
X141630550Y-95696476D01*
X141764709Y-95574845D01*
X141867876Y-95376182D01*
X142008299Y-94979732D01*
X142059149Y-94659482D01*
X142018098Y-94433149D01*
X141996498Y-94397713D01*
X141927499Y-94336830D01*
X141805689Y-94290777D01*
X141605315Y-94254485D01*
X141300623Y-94222880D01*
X140988737Y-94199242D01*
X140561050Y-94165957D01*
X140253382Y-94129885D01*
X140036432Y-94082998D01*
X139880899Y-94017270D01*
X139757484Y-93924673D01*
X139674072Y-93839085D01*
X139578377Y-93634913D01*
X139550907Y-93340723D01*
X139583952Y-92995173D01*
X139669798Y-92636920D01*
X139800733Y-92304622D01*
X139969044Y-92036936D01*
X140050639Y-91951634D01*
X140252765Y-91822376D01*
X140532388Y-91734749D01*
X140909197Y-91685458D01*
X141402881Y-91671210D01*
X141697730Y-91676143D01*
X141697730Y-91676143D01*
G37*
X141697730Y-91676143D02*
X142084936Y-91689048D01*
X142353247Y-91706092D01*
X142533174Y-91732999D01*
X142655224Y-91775491D01*
X142749906Y-91839290D01*
X142798235Y-91882581D01*
X142911490Y-92012496D01*
X142969653Y-92162908D01*
X142989666Y-92388047D01*
X142990795Y-92498905D01*
X142990795Y-92934118D01*
X142376519Y-92934118D01*
X142424194Y-92679991D01*
X142421426Y-92443074D01*
X142306886Y-92272438D01*
X142073780Y-92165044D01*
X141715313Y-92117857D01*
X141224690Y-92127840D01*
X141193570Y-92129999D01*
X140807819Y-92178565D01*
X140539063Y-92272638D01*
X140357065Y-92432306D01*
X140231589Y-92677654D01*
X140193355Y-92794436D01*
X140122996Y-93114730D01*
X140137801Y-93351162D01*
X140250526Y-93515030D01*
X140473930Y-93617634D01*
X140820771Y-93670271D01*
X141197853Y-93684013D01*
X141733482Y-93711388D01*
X142132588Y-93785290D01*
X142401084Y-93907125D01*
X142492414Y-93991565D01*
X142570749Y-94116741D01*
X142605757Y-94271360D01*
X142604765Y-94503117D01*
X142593939Y-94652353D01*
X142515971Y-95204707D01*
X142381245Y-95628303D01*
X142183141Y-95935130D01*
X141915042Y-96137179D01*
X141735228Y-96208026D01*
X141557156Y-96238919D01*
X141275584Y-96263066D01*
X140928405Y-96279858D01*
X140553509Y-96288685D01*
X140188789Y-96288937D01*
X139872138Y-96280003D01*
X139641445Y-96261275D01*
X139554324Y-96243123D01*
X139306279Y-96096498D01*
X139160985Y-95865127D01*
X139107015Y-95529227D01*
X139106089Y-95467205D01*
X139114467Y-95148103D01*
X139149408Y-94950072D01*
X139225619Y-94845241D01*
X139357809Y-94805741D01*
X139457268Y-94801765D01*
X139717756Y-94801765D01*
X139669441Y-95156618D01*
X139649754Y-95431108D01*
X139692793Y-95618311D01*
X139819341Y-95735938D01*
X140050185Y-95801700D01*
X140406109Y-95833311D01*
X140466701Y-95836003D01*
X140806273Y-95837691D01*
X141132237Y-95818657D01*
X141382244Y-95782892D01*
X141412762Y-95775421D01*
X141630550Y-95696476D01*
X141764709Y-95574845D01*
X141867876Y-95376182D01*
X142008299Y-94979732D01*
X142059149Y-94659482D01*
X142018098Y-94433149D01*
X141996498Y-94397713D01*
X141927499Y-94336830D01*
X141805689Y-94290777D01*
X141605315Y-94254485D01*
X141300623Y-94222880D01*
X140988737Y-94199242D01*
X140561050Y-94165957D01*
X140253382Y-94129885D01*
X140036432Y-94082998D01*
X139880899Y-94017270D01*
X139757484Y-93924673D01*
X139674072Y-93839085D01*
X139578377Y-93634913D01*
X139550907Y-93340723D01*
X139583952Y-92995173D01*
X139669798Y-92636920D01*
X139800733Y-92304622D01*
X139969044Y-92036936D01*
X140050639Y-91951634D01*
X140252765Y-91822376D01*
X140532388Y-91734749D01*
X140909197Y-91685458D01*
X141402881Y-91671210D01*
X141697730Y-91676143D01*
G36*
X126009658Y-91752067D02*
X126076532Y-91753060D01*
X127539916Y-91776176D01*
X127728955Y-91996123D01*
X127828390Y-92126382D01*
X127881017Y-92255638D01*
X127896707Y-92431871D01*
X127885337Y-92703062D01*
X127882696Y-92743182D01*
X127815776Y-93202011D01*
X127687587Y-93599253D01*
X127510530Y-93906393D01*
X127297005Y-94094919D01*
X127294146Y-94096409D01*
X127152488Y-94177367D01*
X127130683Y-94241768D01*
X127215706Y-94341370D01*
X127229118Y-94354794D01*
X127327134Y-94505961D01*
X127370286Y-94722785D01*
X127358969Y-95026990D01*
X127293577Y-95440300D01*
X127252484Y-95640499D01*
X127127702Y-96221176D01*
X126840178Y-96221176D01*
X126655583Y-96211894D01*
X126583584Y-96167709D01*
X126587729Y-96064118D01*
X126590134Y-96053088D01*
X126625255Y-95895504D01*
X126680583Y-95647180D01*
X126741013Y-95375907D01*
X126801284Y-95028871D01*
X126795041Y-94788170D01*
X126715914Y-94623369D01*
X126558700Y-94504653D01*
X126445478Y-94479629D01*
X126228528Y-94458665D01*
X125941489Y-94442413D01*
X125617999Y-94431528D01*
X125291698Y-94426660D01*
X124996225Y-94428465D01*
X124765218Y-94437594D01*
X124632318Y-94454700D01*
X124613148Y-94466891D01*
X124598311Y-94555892D01*
X124559144Y-94753148D01*
X124503656Y-95021045D01*
X124439860Y-95321971D01*
X124375768Y-95618310D01*
X124319390Y-95872449D01*
X124278738Y-96046775D01*
X124267342Y-96090441D01*
X124182648Y-96177174D01*
X124028700Y-96221734D01*
X123862977Y-96221408D01*
X123742958Y-96173483D01*
X123716677Y-96116430D01*
X123731910Y-96018675D01*
X123774934Y-95794487D01*
X123841741Y-95463418D01*
X123928320Y-95045024D01*
X124030660Y-94558859D01*
X124144751Y-94024476D01*
X124164803Y-93931283D01*
X124166372Y-93923971D01*
X124760791Y-93923971D01*
X124830689Y-93952831D01*
X125015482Y-93970878D01*
X125281081Y-93978555D01*
X125593394Y-93976307D01*
X125918329Y-93964580D01*
X126221797Y-93943819D01*
X126469705Y-93914467D01*
X126544408Y-93900694D01*
X126786702Y-93827204D01*
X126980840Y-93730955D01*
X127038946Y-93683544D01*
X127140798Y-93509294D01*
X127236652Y-93245687D01*
X127311580Y-92950356D01*
X127350651Y-92680935D01*
X127343097Y-92509327D01*
X127285907Y-92386750D01*
X127171756Y-92298307D01*
X126980406Y-92239116D01*
X126691614Y-92204294D01*
X126285142Y-92188958D01*
X126007353Y-92187059D01*
X125095403Y-92187059D01*
X124927213Y-93027500D01*
X124860632Y-93365561D01*
X124806829Y-93648953D01*
X124771662Y-93846126D01*
X124760791Y-93923971D01*
X124166372Y-93923971D01*
X124280228Y-93393399D01*
X124384643Y-92902929D01*
X124474062Y-92478903D01*
X124544502Y-92140348D01*
X124591980Y-91906290D01*
X124612512Y-91795758D01*
X124613038Y-91790413D01*
X124683991Y-91772976D01*
X124881719Y-91759846D01*
X125183633Y-91751600D01*
X125567142Y-91748815D01*
X126009658Y-91752067D01*
X126009658Y-91752067D01*
G37*
X126009658Y-91752067D02*
X126076532Y-91753060D01*
X127539916Y-91776176D01*
X127728955Y-91996123D01*
X127828390Y-92126382D01*
X127881017Y-92255638D01*
X127896707Y-92431871D01*
X127885337Y-92703062D01*
X127882696Y-92743182D01*
X127815776Y-93202011D01*
X127687587Y-93599253D01*
X127510530Y-93906393D01*
X127297005Y-94094919D01*
X127294146Y-94096409D01*
X127152488Y-94177367D01*
X127130683Y-94241768D01*
X127215706Y-94341370D01*
X127229118Y-94354794D01*
X127327134Y-94505961D01*
X127370286Y-94722785D01*
X127358969Y-95026990D01*
X127293577Y-95440300D01*
X127252484Y-95640499D01*
X127127702Y-96221176D01*
X126840178Y-96221176D01*
X126655583Y-96211894D01*
X126583584Y-96167709D01*
X126587729Y-96064118D01*
X126590134Y-96053088D01*
X126625255Y-95895504D01*
X126680583Y-95647180D01*
X126741013Y-95375907D01*
X126801284Y-95028871D01*
X126795041Y-94788170D01*
X126715914Y-94623369D01*
X126558700Y-94504653D01*
X126445478Y-94479629D01*
X126228528Y-94458665D01*
X125941489Y-94442413D01*
X125617999Y-94431528D01*
X125291698Y-94426660D01*
X124996225Y-94428465D01*
X124765218Y-94437594D01*
X124632318Y-94454700D01*
X124613148Y-94466891D01*
X124598311Y-94555892D01*
X124559144Y-94753148D01*
X124503656Y-95021045D01*
X124439860Y-95321971D01*
X124375768Y-95618310D01*
X124319390Y-95872449D01*
X124278738Y-96046775D01*
X124267342Y-96090441D01*
X124182648Y-96177174D01*
X124028700Y-96221734D01*
X123862977Y-96221408D01*
X123742958Y-96173483D01*
X123716677Y-96116430D01*
X123731910Y-96018675D01*
X123774934Y-95794487D01*
X123841741Y-95463418D01*
X123928320Y-95045024D01*
X124030660Y-94558859D01*
X124144751Y-94024476D01*
X124164803Y-93931283D01*
X124166372Y-93923971D01*
X124760791Y-93923971D01*
X124830689Y-93952831D01*
X125015482Y-93970878D01*
X125281081Y-93978555D01*
X125593394Y-93976307D01*
X125918329Y-93964580D01*
X126221797Y-93943819D01*
X126469705Y-93914467D01*
X126544408Y-93900694D01*
X126786702Y-93827204D01*
X126980840Y-93730955D01*
X127038946Y-93683544D01*
X127140798Y-93509294D01*
X127236652Y-93245687D01*
X127311580Y-92950356D01*
X127350651Y-92680935D01*
X127343097Y-92509327D01*
X127285907Y-92386750D01*
X127171756Y-92298307D01*
X126980406Y-92239116D01*
X126691614Y-92204294D01*
X126285142Y-92188958D01*
X126007353Y-92187059D01*
X125095403Y-92187059D01*
X124927213Y-93027500D01*
X124860632Y-93365561D01*
X124806829Y-93648953D01*
X124771662Y-93846126D01*
X124760791Y-93923971D01*
X124166372Y-93923971D01*
X124280228Y-93393399D01*
X124384643Y-92902929D01*
X124474062Y-92478903D01*
X124544502Y-92140348D01*
X124591980Y-91906290D01*
X124612512Y-91795758D01*
X124613038Y-91790413D01*
X124683991Y-91772976D01*
X124881719Y-91759846D01*
X125183633Y-91751600D01*
X125567142Y-91748815D01*
X126009658Y-91752067D01*
G36*
X144325808Y-91750696D02*
X144397769Y-91797068D01*
X144395101Y-91869559D01*
X144371828Y-91974184D01*
X144322123Y-92205291D01*
X144250178Y-92543123D01*
X144160188Y-92967923D01*
X144056344Y-93459932D01*
X143942840Y-93999395D01*
X143919477Y-94110634D01*
X143476383Y-96220975D01*
X143187523Y-96221076D01*
X143000440Y-96209376D01*
X142928446Y-96162810D01*
X142931036Y-96090441D01*
X142954276Y-95985816D01*
X143003965Y-95754713D01*
X143075909Y-95416891D01*
X143165915Y-94992108D01*
X143269788Y-94500123D01*
X143383334Y-93960693D01*
X143406660Y-93849683D01*
X143849912Y-91739661D01*
X144138772Y-91739242D01*
X144325808Y-91750696D01*
X144325808Y-91750696D01*
G37*
X144325808Y-91750696D02*
X144397769Y-91797068D01*
X144395101Y-91869559D01*
X144371828Y-91974184D01*
X144322123Y-92205291D01*
X144250178Y-92543123D01*
X144160188Y-92967923D01*
X144056344Y-93459932D01*
X143942840Y-93999395D01*
X143919477Y-94110634D01*
X143476383Y-96220975D01*
X143187523Y-96221076D01*
X143000440Y-96209376D01*
X142928446Y-96162810D01*
X142931036Y-96090441D01*
X142954276Y-95985816D01*
X143003965Y-95754713D01*
X143075909Y-95416891D01*
X143165915Y-94992108D01*
X143269788Y-94500123D01*
X143383334Y-93960693D01*
X143406660Y-93849683D01*
X143849912Y-91739661D01*
X144138772Y-91739242D01*
X144325808Y-91750696D01*
G36*
X125839398Y-84649745D02*
X126189117Y-84671646D01*
X126434185Y-84705522D01*
X126520235Y-84731015D01*
X126735959Y-84904659D01*
X126881139Y-85172815D01*
X126929030Y-85459819D01*
X126921161Y-85594676D01*
X126871853Y-85661923D01*
X126742552Y-85685074D01*
X126555500Y-85687647D01*
X126331130Y-85679604D01*
X126219251Y-85645917D01*
X126183371Y-85572243D01*
X126181971Y-85540864D01*
X126125842Y-85387433D01*
X125951911Y-85290914D01*
X125651863Y-85248534D01*
X125314681Y-85251787D01*
X125004571Y-85273476D01*
X124785291Y-85317345D01*
X124641122Y-85406247D01*
X124556345Y-85563039D01*
X124515243Y-85810574D01*
X124502098Y-86171708D01*
X124501089Y-86434778D01*
X124505437Y-86870248D01*
X124528863Y-87179192D01*
X124586932Y-87384458D01*
X124695214Y-87508891D01*
X124869276Y-87575338D01*
X125124687Y-87606643D01*
X125306852Y-87617229D01*
X125683905Y-87613887D01*
X125943089Y-87549797D01*
X126108391Y-87411126D01*
X126203796Y-87184041D01*
X126223846Y-87088382D01*
X126273305Y-86808235D01*
X125285500Y-86808235D01*
X125285500Y-86285294D01*
X126943031Y-86285294D01*
X126917354Y-87030804D01*
X126902751Y-87375869D01*
X126881637Y-87607228D01*
X126845298Y-87760568D01*
X126785018Y-87871579D01*
X126692081Y-87975949D01*
X126684751Y-87983304D01*
X126595089Y-88067384D01*
X126504454Y-88125687D01*
X126383983Y-88163792D01*
X126204813Y-88187276D01*
X125938081Y-88201716D01*
X125554924Y-88212690D01*
X125489457Y-88214289D01*
X125083973Y-88222547D01*
X124797275Y-88221777D01*
X124598832Y-88208260D01*
X124458114Y-88178278D01*
X124344589Y-88128114D01*
X124239618Y-88062089D01*
X124059235Y-87924363D01*
X123929351Y-87774176D01*
X123842126Y-87585024D01*
X123789721Y-87330404D01*
X123764296Y-86983811D01*
X123758010Y-86518741D01*
X123758244Y-86434706D01*
X123768112Y-85933184D01*
X123798049Y-85555506D01*
X123855717Y-85276620D01*
X123948779Y-85071475D01*
X124084900Y-84915020D01*
X124261921Y-84788152D01*
X124388032Y-84724444D01*
X124539294Y-84682026D01*
X124747576Y-84656853D01*
X125044744Y-84644879D01*
X125412721Y-84642044D01*
X125839398Y-84649745D01*
X125839398Y-84649745D01*
G37*
X125839398Y-84649745D02*
X126189117Y-84671646D01*
X126434185Y-84705522D01*
X126520235Y-84731015D01*
X126735959Y-84904659D01*
X126881139Y-85172815D01*
X126929030Y-85459819D01*
X126921161Y-85594676D01*
X126871853Y-85661923D01*
X126742552Y-85685074D01*
X126555500Y-85687647D01*
X126331130Y-85679604D01*
X126219251Y-85645917D01*
X126183371Y-85572243D01*
X126181971Y-85540864D01*
X126125842Y-85387433D01*
X125951911Y-85290914D01*
X125651863Y-85248534D01*
X125314681Y-85251787D01*
X125004571Y-85273476D01*
X124785291Y-85317345D01*
X124641122Y-85406247D01*
X124556345Y-85563039D01*
X124515243Y-85810574D01*
X124502098Y-86171708D01*
X124501089Y-86434778D01*
X124505437Y-86870248D01*
X124528863Y-87179192D01*
X124586932Y-87384458D01*
X124695214Y-87508891D01*
X124869276Y-87575338D01*
X125124687Y-87606643D01*
X125306852Y-87617229D01*
X125683905Y-87613887D01*
X125943089Y-87549797D01*
X126108391Y-87411126D01*
X126203796Y-87184041D01*
X126223846Y-87088382D01*
X126273305Y-86808235D01*
X125285500Y-86808235D01*
X125285500Y-86285294D01*
X126943031Y-86285294D01*
X126917354Y-87030804D01*
X126902751Y-87375869D01*
X126881637Y-87607228D01*
X126845298Y-87760568D01*
X126785018Y-87871579D01*
X126692081Y-87975949D01*
X126684751Y-87983304D01*
X126595089Y-88067384D01*
X126504454Y-88125687D01*
X126383983Y-88163792D01*
X126204813Y-88187276D01*
X125938081Y-88201716D01*
X125554924Y-88212690D01*
X125489457Y-88214289D01*
X125083973Y-88222547D01*
X124797275Y-88221777D01*
X124598832Y-88208260D01*
X124458114Y-88178278D01*
X124344589Y-88128114D01*
X124239618Y-88062089D01*
X124059235Y-87924363D01*
X123929351Y-87774176D01*
X123842126Y-87585024D01*
X123789721Y-87330404D01*
X123764296Y-86983811D01*
X123758010Y-86518741D01*
X123758244Y-86434706D01*
X123768112Y-85933184D01*
X123798049Y-85555506D01*
X123855717Y-85276620D01*
X123948779Y-85071475D01*
X124084900Y-84915020D01*
X124261921Y-84788152D01*
X124388032Y-84724444D01*
X124539294Y-84682026D01*
X124747576Y-84656853D01*
X125044744Y-84644879D01*
X125412721Y-84642044D01*
X125839398Y-84649745D01*
G36*
X128124324Y-88227647D02*
X127377265Y-88227647D01*
X127377265Y-84641765D01*
X128124324Y-84641765D01*
X128124324Y-88227647D01*
X128124324Y-88227647D01*
G37*
X128124324Y-88227647D02*
X127377265Y-88227647D01*
X127377265Y-84641765D01*
X128124324Y-84641765D01*
X128124324Y-88227647D01*
G36*
X129798947Y-84679118D02*
X130120522Y-85500882D01*
X130262989Y-85871403D01*
X130398183Y-86234349D01*
X130508768Y-86542564D01*
X130566853Y-86714853D01*
X130659324Y-86971339D01*
X130732108Y-87085866D01*
X130792355Y-87063457D01*
X130846632Y-86911454D01*
X130889361Y-86772823D01*
X130973365Y-86525011D01*
X131087895Y-86198899D01*
X131222202Y-85825369D01*
X131275679Y-85678807D01*
X131655633Y-84641765D01*
X132830795Y-84641765D01*
X132830795Y-88227647D01*
X132158442Y-88227647D01*
X132151056Y-86826912D01*
X132147820Y-86342535D01*
X132142977Y-85992862D01*
X132135020Y-85763186D01*
X132122441Y-85638799D01*
X132103732Y-85604992D01*
X132077386Y-85647060D01*
X132041895Y-85750293D01*
X132040989Y-85753175D01*
X131977044Y-85939106D01*
X131870535Y-86229585D01*
X131734290Y-86590393D01*
X131581137Y-86987312D01*
X131515897Y-87153910D01*
X131093484Y-88227647D01*
X130389100Y-88227647D01*
X129900137Y-86976323D01*
X129740258Y-86566632D01*
X129597745Y-86200433D01*
X129482165Y-85902384D01*
X129403082Y-85697144D01*
X129371294Y-85612941D01*
X129358444Y-85647247D01*
X129346677Y-85810051D01*
X129336760Y-86080443D01*
X129329457Y-86437509D01*
X129325533Y-86860337D01*
X129325516Y-86864265D01*
X129319618Y-88227647D01*
X128647265Y-88227647D01*
X128647265Y-84635480D01*
X129798947Y-84679118D01*
X129798947Y-84679118D01*
G37*
X129798947Y-84679118D02*
X130120522Y-85500882D01*
X130262989Y-85871403D01*
X130398183Y-86234349D01*
X130508768Y-86542564D01*
X130566853Y-86714853D01*
X130659324Y-86971339D01*
X130732108Y-87085866D01*
X130792355Y-87063457D01*
X130846632Y-86911454D01*
X130889361Y-86772823D01*
X130973365Y-86525011D01*
X131087895Y-86198899D01*
X131222202Y-85825369D01*
X131275679Y-85678807D01*
X131655633Y-84641765D01*
X132830795Y-84641765D01*
X132830795Y-88227647D01*
X132158442Y-88227647D01*
X132151056Y-86826912D01*
X132147820Y-86342535D01*
X132142977Y-85992862D01*
X132135020Y-85763186D01*
X132122441Y-85638799D01*
X132103732Y-85604992D01*
X132077386Y-85647060D01*
X132041895Y-85750293D01*
X132040989Y-85753175D01*
X131977044Y-85939106D01*
X131870535Y-86229585D01*
X131734290Y-86590393D01*
X131581137Y-86987312D01*
X131515897Y-87153910D01*
X131093484Y-88227647D01*
X130389100Y-88227647D01*
X129900137Y-86976323D01*
X129740258Y-86566632D01*
X129597745Y-86200433D01*
X129482165Y-85902384D01*
X129403082Y-85697144D01*
X129371294Y-85612941D01*
X129358444Y-85647247D01*
X129346677Y-85810051D01*
X129336760Y-86080443D01*
X129329457Y-86437509D01*
X129325533Y-86860337D01*
X129325516Y-86864265D01*
X129319618Y-88227647D01*
X128647265Y-88227647D01*
X128647265Y-84635480D01*
X129798947Y-84679118D01*
G36*
X135332012Y-84642868D02*
X135695828Y-84679950D01*
X135974640Y-84744841D01*
X136040606Y-84772616D01*
X136247084Y-84899370D01*
X136397641Y-85056328D01*
X136500355Y-85267400D01*
X136563304Y-85556496D01*
X136594566Y-85947527D01*
X136602271Y-86435183D01*
X136599062Y-86858412D01*
X136588159Y-87162610D01*
X136565933Y-87378105D01*
X136528757Y-87535222D01*
X136473002Y-87664288D01*
X136450318Y-87705183D01*
X136294461Y-87918830D01*
X136096820Y-88068378D01*
X135830969Y-88163326D01*
X135470482Y-88213172D01*
X134997265Y-88227415D01*
X134588675Y-88220129D01*
X134294990Y-88195439D01*
X134082282Y-88149099D01*
X133953924Y-88096796D01*
X133747485Y-87970125D01*
X133596976Y-87813384D01*
X133494341Y-87602669D01*
X133431523Y-87314076D01*
X133400462Y-86923702D01*
X133393631Y-86472059D01*
X134110050Y-86472059D01*
X134126016Y-86884958D01*
X134163044Y-87174850D01*
X134228168Y-87367479D01*
X134328419Y-87488590D01*
X134400003Y-87533502D01*
X134617356Y-87595783D01*
X134915636Y-87624611D01*
X135229827Y-87618549D01*
X135494915Y-87576162D01*
X135548202Y-87558852D01*
X135713753Y-87421495D01*
X135824989Y-87153728D01*
X135883073Y-86751757D01*
X135892902Y-86434706D01*
X135875590Y-85980258D01*
X135814204Y-85653289D01*
X135694576Y-85434887D01*
X135502536Y-85306141D01*
X135223913Y-85248140D01*
X134997265Y-85239412D01*
X134657622Y-85262443D01*
X134412719Y-85343900D01*
X134249210Y-85502325D01*
X134153749Y-85756260D01*
X134112989Y-86124248D01*
X134110050Y-86472059D01*
X133393631Y-86472059D01*
X133393038Y-86432895D01*
X133403099Y-85923108D01*
X133436419Y-85538073D01*
X133501070Y-85253903D01*
X133605121Y-85046711D01*
X133756641Y-84892611D01*
X133953924Y-84772616D01*
X134194147Y-84698467D01*
X134534810Y-84652126D01*
X134929552Y-84633593D01*
X135332012Y-84642868D01*
X135332012Y-84642868D01*
G37*
X135332012Y-84642868D02*
X135695828Y-84679950D01*
X135974640Y-84744841D01*
X136040606Y-84772616D01*
X136247084Y-84899370D01*
X136397641Y-85056328D01*
X136500355Y-85267400D01*
X136563304Y-85556496D01*
X136594566Y-85947527D01*
X136602271Y-86435183D01*
X136599062Y-86858412D01*
X136588159Y-87162610D01*
X136565933Y-87378105D01*
X136528757Y-87535222D01*
X136473002Y-87664288D01*
X136450318Y-87705183D01*
X136294461Y-87918830D01*
X136096820Y-88068378D01*
X135830969Y-88163326D01*
X135470482Y-88213172D01*
X134997265Y-88227415D01*
X134588675Y-88220129D01*
X134294990Y-88195439D01*
X134082282Y-88149099D01*
X133953924Y-88096796D01*
X133747485Y-87970125D01*
X133596976Y-87813384D01*
X133494341Y-87602669D01*
X133431523Y-87314076D01*
X133400462Y-86923702D01*
X133393631Y-86472059D01*
X134110050Y-86472059D01*
X134126016Y-86884958D01*
X134163044Y-87174850D01*
X134228168Y-87367479D01*
X134328419Y-87488590D01*
X134400003Y-87533502D01*
X134617356Y-87595783D01*
X134915636Y-87624611D01*
X135229827Y-87618549D01*
X135494915Y-87576162D01*
X135548202Y-87558852D01*
X135713753Y-87421495D01*
X135824989Y-87153728D01*
X135883073Y-86751757D01*
X135892902Y-86434706D01*
X135875590Y-85980258D01*
X135814204Y-85653289D01*
X135694576Y-85434887D01*
X135502536Y-85306141D01*
X135223913Y-85248140D01*
X134997265Y-85239412D01*
X134657622Y-85262443D01*
X134412719Y-85343900D01*
X134249210Y-85502325D01*
X134153749Y-85756260D01*
X134112989Y-86124248D01*
X134110050Y-86472059D01*
X133393631Y-86472059D01*
X133393038Y-86432895D01*
X133403099Y-85923108D01*
X133436419Y-85538073D01*
X133501070Y-85253903D01*
X133605121Y-85046711D01*
X133756641Y-84892611D01*
X133953924Y-84772616D01*
X134194147Y-84698467D01*
X134534810Y-84652126D01*
X134929552Y-84633593D01*
X135332012Y-84642868D01*
G36*
X138610348Y-85258088D02*
X138786662Y-85588808D01*
X138998805Y-85994552D01*
X139216190Y-86416507D01*
X139358201Y-86696176D01*
X139772204Y-87517941D01*
X139778442Y-84641765D01*
X140450795Y-84641765D01*
X140450795Y-88227647D01*
X139269698Y-88227647D01*
X139068003Y-87883481D01*
X138963346Y-87696295D01*
X138808536Y-87408424D01*
X138620857Y-87052512D01*
X138417593Y-86661201D01*
X138313845Y-86459200D01*
X137761383Y-85379086D01*
X137761383Y-88227647D01*
X137089030Y-88227647D01*
X137089030Y-84641765D01*
X138276499Y-84641765D01*
X138610348Y-85258088D01*
X138610348Y-85258088D01*
G37*
X138610348Y-85258088D02*
X138786662Y-85588808D01*
X138998805Y-85994552D01*
X139216190Y-86416507D01*
X139358201Y-86696176D01*
X139772204Y-87517941D01*
X139778442Y-84641765D01*
X140450795Y-84641765D01*
X140450795Y-88227647D01*
X139269698Y-88227647D01*
X139068003Y-87883481D01*
X138963346Y-87696295D01*
X138808536Y-87408424D01*
X138620857Y-87052512D01*
X138417593Y-86661201D01*
X138313845Y-86459200D01*
X137761383Y-85379086D01*
X137761383Y-88227647D01*
X137089030Y-88227647D01*
X137089030Y-84641765D01*
X138276499Y-84641765D01*
X138610348Y-85258088D01*
G36*
X142647081Y-84650063D02*
X142963201Y-84672329D01*
X143201563Y-84704620D01*
X143280740Y-84724570D01*
X143521607Y-84883285D01*
X143679602Y-85147491D01*
X143737822Y-85488618D01*
X143737853Y-85497172D01*
X143730518Y-85661512D01*
X143681072Y-85738356D01*
X143548354Y-85760972D01*
X143409776Y-85762353D01*
X143201169Y-85752144D01*
X143093754Y-85704346D01*
X143039776Y-85593199D01*
X143030323Y-85557660D01*
X142963372Y-85387613D01*
X142891489Y-85297333D01*
X142754425Y-85259880D01*
X142527327Y-85242308D01*
X142260640Y-85243233D01*
X142004812Y-85261269D01*
X141810287Y-85295032D01*
X141735736Y-85329059D01*
X141666052Y-85479851D01*
X141649908Y-85689668D01*
X141686375Y-85884964D01*
X141743886Y-85974634D01*
X141856524Y-86015679D01*
X142081177Y-86060884D01*
X142380836Y-86103641D01*
X142595903Y-86126765D01*
X143049354Y-86177998D01*
X143374432Y-86244678D01*
X143592161Y-86344368D01*
X143723565Y-86494633D01*
X143789667Y-86713036D01*
X143811490Y-87017142D01*
X143812559Y-87143210D01*
X143781438Y-87567216D01*
X143683381Y-87869765D01*
X143511349Y-88066282D01*
X143355446Y-88144842D01*
X143141634Y-88188338D01*
X142828526Y-88214690D01*
X142459040Y-88224417D01*
X142076096Y-88218036D01*
X141722612Y-88196064D01*
X141441508Y-88159021D01*
X141300204Y-88120041D01*
X141117064Y-88022654D01*
X141004783Y-87899854D01*
X140939108Y-87709773D01*
X140897331Y-87424559D01*
X140853804Y-87032353D01*
X141212593Y-87032353D01*
X141430655Y-87040575D01*
X141537336Y-87076028D01*
X141570258Y-87154895D01*
X141571383Y-87186676D01*
X141592164Y-87391302D01*
X141671286Y-87522817D01*
X141833913Y-87596186D01*
X142105212Y-87626375D01*
X142316834Y-87630000D01*
X142620118Y-87625502D01*
X142811315Y-87606184D01*
X142927628Y-87563311D01*
X143006257Y-87488147D01*
X143023911Y-87463966D01*
X143132055Y-87219319D01*
X143103895Y-87009703D01*
X142951145Y-86849789D01*
X142685520Y-86754250D01*
X142440697Y-86733529D01*
X141929943Y-86706164D01*
X141510551Y-86627339D01*
X141202351Y-86501966D01*
X141067118Y-86393442D01*
X140969123Y-86251087D01*
X140917572Y-86075618D01*
X140899724Y-85816317D01*
X140899030Y-85724349D01*
X140920141Y-85340923D01*
X140995370Y-85057119D01*
X141142566Y-84859146D01*
X141379574Y-84733211D01*
X141724241Y-84665524D01*
X142194413Y-84642291D01*
X142299908Y-84641765D01*
X142647081Y-84650063D01*
X142647081Y-84650063D01*
G37*
X142647081Y-84650063D02*
X142963201Y-84672329D01*
X143201563Y-84704620D01*
X143280740Y-84724570D01*
X143521607Y-84883285D01*
X143679602Y-85147491D01*
X143737822Y-85488618D01*
X143737853Y-85497172D01*
X143730518Y-85661512D01*
X143681072Y-85738356D01*
X143548354Y-85760972D01*
X143409776Y-85762353D01*
X143201169Y-85752144D01*
X143093754Y-85704346D01*
X143039776Y-85593199D01*
X143030323Y-85557660D01*
X142963372Y-85387613D01*
X142891489Y-85297333D01*
X142754425Y-85259880D01*
X142527327Y-85242308D01*
X142260640Y-85243233D01*
X142004812Y-85261269D01*
X141810287Y-85295032D01*
X141735736Y-85329059D01*
X141666052Y-85479851D01*
X141649908Y-85689668D01*
X141686375Y-85884964D01*
X141743886Y-85974634D01*
X141856524Y-86015679D01*
X142081177Y-86060884D01*
X142380836Y-86103641D01*
X142595903Y-86126765D01*
X143049354Y-86177998D01*
X143374432Y-86244678D01*
X143592161Y-86344368D01*
X143723565Y-86494633D01*
X143789667Y-86713036D01*
X143811490Y-87017142D01*
X143812559Y-87143210D01*
X143781438Y-87567216D01*
X143683381Y-87869765D01*
X143511349Y-88066282D01*
X143355446Y-88144842D01*
X143141634Y-88188338D01*
X142828526Y-88214690D01*
X142459040Y-88224417D01*
X142076096Y-88218036D01*
X141722612Y-88196064D01*
X141441508Y-88159021D01*
X141300204Y-88120041D01*
X141117064Y-88022654D01*
X141004783Y-87899854D01*
X140939108Y-87709773D01*
X140897331Y-87424559D01*
X140853804Y-87032353D01*
X141212593Y-87032353D01*
X141430655Y-87040575D01*
X141537336Y-87076028D01*
X141570258Y-87154895D01*
X141571383Y-87186676D01*
X141592164Y-87391302D01*
X141671286Y-87522817D01*
X141833913Y-87596186D01*
X142105212Y-87626375D01*
X142316834Y-87630000D01*
X142620118Y-87625502D01*
X142811315Y-87606184D01*
X142927628Y-87563311D01*
X143006257Y-87488147D01*
X143023911Y-87463966D01*
X143132055Y-87219319D01*
X143103895Y-87009703D01*
X142951145Y-86849789D01*
X142685520Y-86754250D01*
X142440697Y-86733529D01*
X141929943Y-86706164D01*
X141510551Y-86627339D01*
X141202351Y-86501966D01*
X141067118Y-86393442D01*
X140969123Y-86251087D01*
X140917572Y-86075618D01*
X140899724Y-85816317D01*
X140899030Y-85724349D01*
X140920141Y-85340923D01*
X140995370Y-85057119D01*
X141142566Y-84859146D01*
X141379574Y-84733211D01*
X141724241Y-84665524D01*
X142194413Y-84642291D01*
X142299908Y-84641765D01*
X142647081Y-84650063D01*
G36*
X161110084Y-93939660D02*
X161115375Y-96211779D01*
X162062584Y-94320660D01*
X163009792Y-92429541D01*
X163015472Y-92920917D01*
X164531340Y-92924335D01*
X166047209Y-92927752D01*
X166135239Y-92951179D01*
X166268929Y-92996413D01*
X166390000Y-93058066D01*
X166500623Y-93137415D01*
X166582752Y-93214174D01*
X166667134Y-93314497D01*
X166734447Y-93423306D01*
X166786630Y-93544057D01*
X166810518Y-93620166D01*
X166820583Y-93672154D01*
X166827207Y-93738916D01*
X166830391Y-93814360D01*
X166830135Y-93892396D01*
X166826440Y-93966936D01*
X166819306Y-94031887D01*
X166810479Y-94075225D01*
X166762950Y-94208716D01*
X166697903Y-94331943D01*
X166616682Y-94443315D01*
X166520633Y-94541241D01*
X166411100Y-94624130D01*
X166291072Y-94689649D01*
X166241762Y-94710896D01*
X166196670Y-94727229D01*
X166151535Y-94739416D01*
X166102093Y-94748226D01*
X166044083Y-94754424D01*
X165973244Y-94758778D01*
X165889657Y-94761923D01*
X165679189Y-94768458D01*
X167274875Y-95832044D01*
X167277598Y-95144147D01*
X167280320Y-94456250D01*
X167799273Y-94456250D01*
X167928430Y-94456345D01*
X168038501Y-94456750D01*
X168131569Y-94457643D01*
X168209715Y-94459205D01*
X168275020Y-94461614D01*
X168329565Y-94465048D01*
X168375432Y-94469687D01*
X168414702Y-94475711D01*
X168449457Y-94483297D01*
X168481777Y-94492625D01*
X168513744Y-94503874D01*
X168547439Y-94517224D01*
X168557787Y-94521495D01*
X168681340Y-94583983D01*
X168793115Y-94663286D01*
X168891560Y-94757700D01*
X168975123Y-94865521D01*
X169042252Y-94985041D01*
X169088278Y-95104246D01*
X169098319Y-95140675D01*
X169106791Y-95180869D01*
X169113813Y-95226809D01*
X169119502Y-95280473D01*
X169123976Y-95343842D01*
X169127353Y-95418893D01*
X169129750Y-95507606D01*
X169131284Y-95611961D01*
X169132075Y-95733937D01*
X169132250Y-95843788D01*
X169132250Y-96297750D01*
X168816187Y-96297750D01*
X168812632Y-95781812D01*
X168811798Y-95663925D01*
X168810998Y-95565215D01*
X168810138Y-95483693D01*
X168809122Y-95417370D01*
X168807855Y-95364256D01*
X168806240Y-95322363D01*
X168804182Y-95289701D01*
X168801587Y-95264281D01*
X168798358Y-95244115D01*
X168794400Y-95227212D01*
X168789618Y-95211584D01*
X168784573Y-95197083D01*
X168735405Y-95087566D01*
X168671414Y-94992546D01*
X168593368Y-94912793D01*
X168502037Y-94849079D01*
X168398189Y-94802176D01*
X168386946Y-94798374D01*
X168363164Y-94790738D01*
X168341523Y-94784594D01*
X168319374Y-94779742D01*
X168294067Y-94775985D01*
X168262953Y-94773123D01*
X168223382Y-94770958D01*
X168172705Y-94769291D01*
X168108271Y-94767924D01*
X168027431Y-94766659D01*
X167949563Y-94765591D01*
X167597667Y-94760868D01*
X167597667Y-95592809D01*
X167597601Y-95723443D01*
X167597411Y-95847775D01*
X167597106Y-95964207D01*
X167596697Y-96071141D01*
X167596194Y-96166979D01*
X167595607Y-96250123D01*
X167594946Y-96318975D01*
X167594222Y-96371936D01*
X167593444Y-96407409D01*
X167592623Y-96423795D01*
X167592369Y-96424750D01*
X167583136Y-96418977D01*
X167557211Y-96402066D01*
X167515510Y-96374623D01*
X167458949Y-96337258D01*
X167388444Y-96290579D01*
X167304910Y-96235194D01*
X167209263Y-96171711D01*
X167102418Y-96100738D01*
X166985293Y-96022885D01*
X166858801Y-95938759D01*
X166723860Y-95848969D01*
X166581385Y-95754122D01*
X166432291Y-95654828D01*
X166277495Y-95551694D01*
X166117912Y-95445329D01*
X166114636Y-95443145D01*
X164642202Y-94461541D01*
X165328830Y-94455810D01*
X165467634Y-94454612D01*
X165586911Y-94453472D01*
X165688303Y-94452333D01*
X165773448Y-94451143D01*
X165843988Y-94449845D01*
X165901563Y-94448386D01*
X165947812Y-94446710D01*
X165984375Y-94444764D01*
X166012894Y-94442491D01*
X166035008Y-94439839D01*
X166052357Y-94436751D01*
X166066582Y-94433174D01*
X166073667Y-94430978D01*
X166182871Y-94385227D01*
X166278822Y-94324732D01*
X166360291Y-94251004D01*
X166426050Y-94165552D01*
X166474870Y-94069887D01*
X166505522Y-93965518D01*
X166515528Y-93887839D01*
X166515226Y-93792773D01*
X166500381Y-93704428D01*
X166469490Y-93615297D01*
X166454208Y-93581691D01*
X166397493Y-93487187D01*
X166325228Y-93406243D01*
X166239026Y-93340031D01*
X166140500Y-93289719D01*
X166031261Y-93256480D01*
X165997529Y-93250156D01*
X165976068Y-93248450D01*
X165933767Y-93246881D01*
X165870952Y-93245451D01*
X165787949Y-93244163D01*
X165685085Y-93243019D01*
X165562685Y-93242022D01*
X165421076Y-93241174D01*
X165260583Y-93240477D01*
X165081533Y-93239933D01*
X164884253Y-93239545D01*
X164669067Y-93239315D01*
X164472938Y-93239246D01*
X163015084Y-93239166D01*
X163015084Y-94456250D01*
X164549667Y-94456250D01*
X164549667Y-94763166D01*
X163015084Y-94763166D01*
X163015084Y-95980250D01*
X165311667Y-95980250D01*
X165311667Y-96297750D01*
X162708167Y-96297750D01*
X162706987Y-93752458D01*
X161757737Y-95649520D01*
X161663592Y-95837589D01*
X161571925Y-96020555D01*
X161483188Y-96197521D01*
X161397833Y-96367593D01*
X161316312Y-96529874D01*
X161239076Y-96683470D01*
X161166578Y-96827485D01*
X161099268Y-96961023D01*
X161037600Y-97083189D01*
X160982025Y-97193088D01*
X160932994Y-97289823D01*
X160890960Y-97372499D01*
X160856375Y-97440222D01*
X160829690Y-97492094D01*
X160811356Y-97527221D01*
X160801827Y-97544708D01*
X160800535Y-97546583D01*
X160799770Y-97536161D01*
X160799021Y-97505539D01*
X160798289Y-97455684D01*
X160797579Y-97387563D01*
X160796895Y-97302143D01*
X160796240Y-97200391D01*
X160795618Y-97083273D01*
X160795033Y-96951757D01*
X160794487Y-96806809D01*
X160793985Y-96649397D01*
X160793530Y-96480487D01*
X160793127Y-96301046D01*
X160792778Y-96112040D01*
X160792487Y-95914438D01*
X160792258Y-95709205D01*
X160792094Y-95497309D01*
X160792000Y-95279717D01*
X160791998Y-95273812D01*
X160791413Y-93001041D01*
X158892875Y-96789875D01*
X158890145Y-96162740D01*
X158887416Y-95535605D01*
X158154969Y-95538323D01*
X157422523Y-95541041D01*
X157142172Y-95919395D01*
X156861822Y-96297750D01*
X156667321Y-96297750D01*
X156589503Y-96297210D01*
X156532337Y-96295574D01*
X156495335Y-96292811D01*
X156478009Y-96288894D01*
X156476555Y-96286544D01*
X156483274Y-96276605D01*
X156501878Y-96250677D01*
X156531666Y-96209708D01*
X156571936Y-96154643D01*
X156621986Y-96086430D01*
X156681114Y-96006015D01*
X156748621Y-95914345D01*
X156823803Y-95812366D01*
X156905959Y-95701025D01*
X156994388Y-95581270D01*
X157088388Y-95454046D01*
X157187258Y-95320300D01*
X157267321Y-95212045D01*
X157670500Y-95212045D01*
X157680772Y-95213180D01*
X157710342Y-95214248D01*
X157757341Y-95215229D01*
X157819902Y-95216106D01*
X157896155Y-95216858D01*
X157984231Y-95217468D01*
X158082263Y-95217915D01*
X158188382Y-95218180D01*
X158279042Y-95218250D01*
X158887584Y-95218250D01*
X158887584Y-93564206D01*
X158852415Y-93610707D01*
X158827002Y-93644509D01*
X158791866Y-93691543D01*
X158748062Y-93750380D01*
X158696645Y-93819593D01*
X158638667Y-93897754D01*
X158575183Y-93983434D01*
X158507246Y-94075206D01*
X158435912Y-94171641D01*
X158362234Y-94271311D01*
X158287266Y-94372789D01*
X158212062Y-94474645D01*
X158137676Y-94575453D01*
X158065162Y-94673784D01*
X157995574Y-94768210D01*
X157929966Y-94857302D01*
X157869393Y-94939634D01*
X157814907Y-95013776D01*
X157767564Y-95078301D01*
X157728417Y-95131781D01*
X157698521Y-95172787D01*
X157678929Y-95199891D01*
X157670695Y-95211666D01*
X157670500Y-95212045D01*
X157267321Y-95212045D01*
X157290296Y-95180980D01*
X157396801Y-95037031D01*
X157506071Y-94889401D01*
X157617404Y-94739035D01*
X157730100Y-94586882D01*
X157843456Y-94433887D01*
X157956772Y-94280997D01*
X158069345Y-94129159D01*
X158180474Y-93979320D01*
X158289457Y-93832426D01*
X158395593Y-93689424D01*
X158498181Y-93551261D01*
X158596519Y-93418884D01*
X158689905Y-93293238D01*
X158777638Y-93175271D01*
X158859016Y-93065930D01*
X158933338Y-92966161D01*
X158999903Y-92876910D01*
X159058008Y-92799126D01*
X159106952Y-92733753D01*
X159146035Y-92681740D01*
X159174553Y-92644033D01*
X159191806Y-92621577D01*
X159197108Y-92615185D01*
X159198084Y-92625511D01*
X159199064Y-92655777D01*
X159200040Y-92704760D01*
X159201003Y-92771232D01*
X159201943Y-92853970D01*
X159202851Y-92951746D01*
X159203718Y-93063337D01*
X159204534Y-93187516D01*
X159205291Y-93323057D01*
X159205979Y-93468736D01*
X159206589Y-93623327D01*
X159207112Y-93785604D01*
X159207539Y-93954342D01*
X159207691Y-94028373D01*
X159210375Y-95441997D01*
X160157584Y-93554769D01*
X161104792Y-91667541D01*
X161110084Y-93939660D01*
X161110084Y-93939660D01*
G37*
X161110084Y-93939660D02*
X161115375Y-96211779D01*
X162062584Y-94320660D01*
X163009792Y-92429541D01*
X163015472Y-92920917D01*
X164531340Y-92924335D01*
X166047209Y-92927752D01*
X166135239Y-92951179D01*
X166268929Y-92996413D01*
X166390000Y-93058066D01*
X166500623Y-93137415D01*
X166582752Y-93214174D01*
X166667134Y-93314497D01*
X166734447Y-93423306D01*
X166786630Y-93544057D01*
X166810518Y-93620166D01*
X166820583Y-93672154D01*
X166827207Y-93738916D01*
X166830391Y-93814360D01*
X166830135Y-93892396D01*
X166826440Y-93966936D01*
X166819306Y-94031887D01*
X166810479Y-94075225D01*
X166762950Y-94208716D01*
X166697903Y-94331943D01*
X166616682Y-94443315D01*
X166520633Y-94541241D01*
X166411100Y-94624130D01*
X166291072Y-94689649D01*
X166241762Y-94710896D01*
X166196670Y-94727229D01*
X166151535Y-94739416D01*
X166102093Y-94748226D01*
X166044083Y-94754424D01*
X165973244Y-94758778D01*
X165889657Y-94761923D01*
X165679189Y-94768458D01*
X167274875Y-95832044D01*
X167277598Y-95144147D01*
X167280320Y-94456250D01*
X167799273Y-94456250D01*
X167928430Y-94456345D01*
X168038501Y-94456750D01*
X168131569Y-94457643D01*
X168209715Y-94459205D01*
X168275020Y-94461614D01*
X168329565Y-94465048D01*
X168375432Y-94469687D01*
X168414702Y-94475711D01*
X168449457Y-94483297D01*
X168481777Y-94492625D01*
X168513744Y-94503874D01*
X168547439Y-94517224D01*
X168557787Y-94521495D01*
X168681340Y-94583983D01*
X168793115Y-94663286D01*
X168891560Y-94757700D01*
X168975123Y-94865521D01*
X169042252Y-94985041D01*
X169088278Y-95104246D01*
X169098319Y-95140675D01*
X169106791Y-95180869D01*
X169113813Y-95226809D01*
X169119502Y-95280473D01*
X169123976Y-95343842D01*
X169127353Y-95418893D01*
X169129750Y-95507606D01*
X169131284Y-95611961D01*
X169132075Y-95733937D01*
X169132250Y-95843788D01*
X169132250Y-96297750D01*
X168816187Y-96297750D01*
X168812632Y-95781812D01*
X168811798Y-95663925D01*
X168810998Y-95565215D01*
X168810138Y-95483693D01*
X168809122Y-95417370D01*
X168807855Y-95364256D01*
X168806240Y-95322363D01*
X168804182Y-95289701D01*
X168801587Y-95264281D01*
X168798358Y-95244115D01*
X168794400Y-95227212D01*
X168789618Y-95211584D01*
X168784573Y-95197083D01*
X168735405Y-95087566D01*
X168671414Y-94992546D01*
X168593368Y-94912793D01*
X168502037Y-94849079D01*
X168398189Y-94802176D01*
X168386946Y-94798374D01*
X168363164Y-94790738D01*
X168341523Y-94784594D01*
X168319374Y-94779742D01*
X168294067Y-94775985D01*
X168262953Y-94773123D01*
X168223382Y-94770958D01*
X168172705Y-94769291D01*
X168108271Y-94767924D01*
X168027431Y-94766659D01*
X167949563Y-94765591D01*
X167597667Y-94760868D01*
X167597667Y-95592809D01*
X167597601Y-95723443D01*
X167597411Y-95847775D01*
X167597106Y-95964207D01*
X167596697Y-96071141D01*
X167596194Y-96166979D01*
X167595607Y-96250123D01*
X167594946Y-96318975D01*
X167594222Y-96371936D01*
X167593444Y-96407409D01*
X167592623Y-96423795D01*
X167592369Y-96424750D01*
X167583136Y-96418977D01*
X167557211Y-96402066D01*
X167515510Y-96374623D01*
X167458949Y-96337258D01*
X167388444Y-96290579D01*
X167304910Y-96235194D01*
X167209263Y-96171711D01*
X167102418Y-96100738D01*
X166985293Y-96022885D01*
X166858801Y-95938759D01*
X166723860Y-95848969D01*
X166581385Y-95754122D01*
X166432291Y-95654828D01*
X166277495Y-95551694D01*
X166117912Y-95445329D01*
X166114636Y-95443145D01*
X164642202Y-94461541D01*
X165328830Y-94455810D01*
X165467634Y-94454612D01*
X165586911Y-94453472D01*
X165688303Y-94452333D01*
X165773448Y-94451143D01*
X165843988Y-94449845D01*
X165901563Y-94448386D01*
X165947812Y-94446710D01*
X165984375Y-94444764D01*
X166012894Y-94442491D01*
X166035008Y-94439839D01*
X166052357Y-94436751D01*
X166066582Y-94433174D01*
X166073667Y-94430978D01*
X166182871Y-94385227D01*
X166278822Y-94324732D01*
X166360291Y-94251004D01*
X166426050Y-94165552D01*
X166474870Y-94069887D01*
X166505522Y-93965518D01*
X166515528Y-93887839D01*
X166515226Y-93792773D01*
X166500381Y-93704428D01*
X166469490Y-93615297D01*
X166454208Y-93581691D01*
X166397493Y-93487187D01*
X166325228Y-93406243D01*
X166239026Y-93340031D01*
X166140500Y-93289719D01*
X166031261Y-93256480D01*
X165997529Y-93250156D01*
X165976068Y-93248450D01*
X165933767Y-93246881D01*
X165870952Y-93245451D01*
X165787949Y-93244163D01*
X165685085Y-93243019D01*
X165562685Y-93242022D01*
X165421076Y-93241174D01*
X165260583Y-93240477D01*
X165081533Y-93239933D01*
X164884253Y-93239545D01*
X164669067Y-93239315D01*
X164472938Y-93239246D01*
X163015084Y-93239166D01*
X163015084Y-94456250D01*
X164549667Y-94456250D01*
X164549667Y-94763166D01*
X163015084Y-94763166D01*
X163015084Y-95980250D01*
X165311667Y-95980250D01*
X165311667Y-96297750D01*
X162708167Y-96297750D01*
X162706987Y-93752458D01*
X161757737Y-95649520D01*
X161663592Y-95837589D01*
X161571925Y-96020555D01*
X161483188Y-96197521D01*
X161397833Y-96367593D01*
X161316312Y-96529874D01*
X161239076Y-96683470D01*
X161166578Y-96827485D01*
X161099268Y-96961023D01*
X161037600Y-97083189D01*
X160982025Y-97193088D01*
X160932994Y-97289823D01*
X160890960Y-97372499D01*
X160856375Y-97440222D01*
X160829690Y-97492094D01*
X160811356Y-97527221D01*
X160801827Y-97544708D01*
X160800535Y-97546583D01*
X160799770Y-97536161D01*
X160799021Y-97505539D01*
X160798289Y-97455684D01*
X160797579Y-97387563D01*
X160796895Y-97302143D01*
X160796240Y-97200391D01*
X160795618Y-97083273D01*
X160795033Y-96951757D01*
X160794487Y-96806809D01*
X160793985Y-96649397D01*
X160793530Y-96480487D01*
X160793127Y-96301046D01*
X160792778Y-96112040D01*
X160792487Y-95914438D01*
X160792258Y-95709205D01*
X160792094Y-95497309D01*
X160792000Y-95279717D01*
X160791998Y-95273812D01*
X160791413Y-93001041D01*
X158892875Y-96789875D01*
X158890145Y-96162740D01*
X158887416Y-95535605D01*
X158154969Y-95538323D01*
X157422523Y-95541041D01*
X157142172Y-95919395D01*
X156861822Y-96297750D01*
X156667321Y-96297750D01*
X156589503Y-96297210D01*
X156532337Y-96295574D01*
X156495335Y-96292811D01*
X156478009Y-96288894D01*
X156476555Y-96286544D01*
X156483274Y-96276605D01*
X156501878Y-96250677D01*
X156531666Y-96209708D01*
X156571936Y-96154643D01*
X156621986Y-96086430D01*
X156681114Y-96006015D01*
X156748621Y-95914345D01*
X156823803Y-95812366D01*
X156905959Y-95701025D01*
X156994388Y-95581270D01*
X157088388Y-95454046D01*
X157187258Y-95320300D01*
X157267321Y-95212045D01*
X157670500Y-95212045D01*
X157680772Y-95213180D01*
X157710342Y-95214248D01*
X157757341Y-95215229D01*
X157819902Y-95216106D01*
X157896155Y-95216858D01*
X157984231Y-95217468D01*
X158082263Y-95217915D01*
X158188382Y-95218180D01*
X158279042Y-95218250D01*
X158887584Y-95218250D01*
X158887584Y-93564206D01*
X158852415Y-93610707D01*
X158827002Y-93644509D01*
X158791866Y-93691543D01*
X158748062Y-93750380D01*
X158696645Y-93819593D01*
X158638667Y-93897754D01*
X158575183Y-93983434D01*
X158507246Y-94075206D01*
X158435912Y-94171641D01*
X158362234Y-94271311D01*
X158287266Y-94372789D01*
X158212062Y-94474645D01*
X158137676Y-94575453D01*
X158065162Y-94673784D01*
X157995574Y-94768210D01*
X157929966Y-94857302D01*
X157869393Y-94939634D01*
X157814907Y-95013776D01*
X157767564Y-95078301D01*
X157728417Y-95131781D01*
X157698521Y-95172787D01*
X157678929Y-95199891D01*
X157670695Y-95211666D01*
X157670500Y-95212045D01*
X157267321Y-95212045D01*
X157290296Y-95180980D01*
X157396801Y-95037031D01*
X157506071Y-94889401D01*
X157617404Y-94739035D01*
X157730100Y-94586882D01*
X157843456Y-94433887D01*
X157956772Y-94280997D01*
X158069345Y-94129159D01*
X158180474Y-93979320D01*
X158289457Y-93832426D01*
X158395593Y-93689424D01*
X158498181Y-93551261D01*
X158596519Y-93418884D01*
X158689905Y-93293238D01*
X158777638Y-93175271D01*
X158859016Y-93065930D01*
X158933338Y-92966161D01*
X158999903Y-92876910D01*
X159058008Y-92799126D01*
X159106952Y-92733753D01*
X159146035Y-92681740D01*
X159174553Y-92644033D01*
X159191806Y-92621577D01*
X159197108Y-92615185D01*
X159198084Y-92625511D01*
X159199064Y-92655777D01*
X159200040Y-92704760D01*
X159201003Y-92771232D01*
X159201943Y-92853970D01*
X159202851Y-92951746D01*
X159203718Y-93063337D01*
X159204534Y-93187516D01*
X159205291Y-93323057D01*
X159205979Y-93468736D01*
X159206589Y-93623327D01*
X159207112Y-93785604D01*
X159207539Y-93954342D01*
X159207691Y-94028373D01*
X159210375Y-95441997D01*
X160157584Y-93554769D01*
X161104792Y-91667541D01*
X161110084Y-93939660D01*
G36*
X157802133Y-92923965D02*
X157958648Y-92924083D01*
X158104025Y-92924292D01*
X158237192Y-92924588D01*
X158357078Y-92924969D01*
X158462612Y-92925432D01*
X158552721Y-92925975D01*
X158626336Y-92926596D01*
X158682384Y-92927291D01*
X158719793Y-92928058D01*
X158737493Y-92928895D01*
X158738834Y-92929212D01*
X158732512Y-92939938D01*
X158715332Y-92964542D01*
X158689379Y-93000156D01*
X158656740Y-93043913D01*
X158625036Y-93085708D01*
X158511820Y-93233875D01*
X156786764Y-93239584D01*
X156563103Y-93240327D01*
X156359596Y-93241017D01*
X156175232Y-93241671D01*
X156008997Y-93242303D01*
X155859880Y-93242930D01*
X155726869Y-93243567D01*
X155608952Y-93244231D01*
X155505116Y-93244936D01*
X155414349Y-93245699D01*
X155335639Y-93246535D01*
X155267974Y-93247460D01*
X155210342Y-93248489D01*
X155161730Y-93249640D01*
X155121126Y-93250926D01*
X155087519Y-93252364D01*
X155059895Y-93253970D01*
X155037244Y-93255760D01*
X155018552Y-93257748D01*
X155002807Y-93259952D01*
X154988998Y-93262386D01*
X154976112Y-93265066D01*
X154963476Y-93267931D01*
X154797151Y-93314440D01*
X154645874Y-93374301D01*
X154507348Y-93448740D01*
X154379274Y-93538980D01*
X154266407Y-93639261D01*
X154154487Y-93763752D01*
X154060074Y-93898780D01*
X153983459Y-94042591D01*
X153924932Y-94193429D01*
X153884783Y-94349538D01*
X153863304Y-94509162D01*
X153860784Y-94670547D01*
X153877513Y-94831935D01*
X153913783Y-94991573D01*
X153969884Y-95147704D01*
X154004556Y-95222110D01*
X154088611Y-95365988D01*
X154189588Y-95498414D01*
X154305698Y-95617834D01*
X154435151Y-95722692D01*
X154576160Y-95811434D01*
X154726934Y-95882504D01*
X154791834Y-95906403D01*
X154836204Y-95921156D01*
X154876457Y-95933561D01*
X154914938Y-95943843D01*
X154953994Y-95952224D01*
X154995973Y-95958928D01*
X155043222Y-95964177D01*
X155098087Y-95968196D01*
X155162915Y-95971206D01*
X155240054Y-95973432D01*
X155331850Y-95975097D01*
X155440650Y-95976423D01*
X155537959Y-95977358D01*
X155664189Y-95978390D01*
X155771367Y-95978885D01*
X155861605Y-95978648D01*
X155937015Y-95977483D01*
X155999708Y-95975194D01*
X156051796Y-95971584D01*
X156095391Y-95966458D01*
X156132604Y-95959619D01*
X156165549Y-95950871D01*
X156196335Y-95940018D01*
X156227076Y-95926864D01*
X156259882Y-95911213D01*
X156262136Y-95910105D01*
X156346589Y-95857436D01*
X156423208Y-95787982D01*
X156488922Y-95705583D01*
X156540659Y-95614077D01*
X156574825Y-95519321D01*
X156579530Y-95497127D01*
X156583280Y-95469008D01*
X156586167Y-95432597D01*
X156588286Y-95385523D01*
X156589729Y-95325418D01*
X156590592Y-95249911D01*
X156590966Y-95156635D01*
X156591000Y-95110193D01*
X156591000Y-94763166D01*
X155215167Y-94763166D01*
X155215167Y-94456250D01*
X156909566Y-94456250D01*
X156905951Y-94998645D01*
X156905123Y-95122237D01*
X156904305Y-95226756D01*
X156903321Y-95314298D01*
X156901996Y-95386957D01*
X156900153Y-95446826D01*
X156897617Y-95496001D01*
X156894212Y-95536575D01*
X156889763Y-95570642D01*
X156884093Y-95600297D01*
X156877027Y-95627634D01*
X156868389Y-95654747D01*
X156858003Y-95683729D01*
X156845693Y-95716677D01*
X156845671Y-95716734D01*
X156792350Y-95829809D01*
X156720862Y-95935197D01*
X156633409Y-96030975D01*
X156532191Y-96115218D01*
X156419409Y-96186003D01*
X156297264Y-96241405D01*
X156215292Y-96267873D01*
X156194607Y-96273303D01*
X156174390Y-96277827D01*
X156152521Y-96281538D01*
X156126879Y-96284532D01*
X156095344Y-96286900D01*
X156055795Y-96288737D01*
X156006113Y-96290136D01*
X155944176Y-96291192D01*
X155867866Y-96291997D01*
X155775060Y-96292646D01*
X155663640Y-96293232D01*
X155638500Y-96293352D01*
X155534757Y-96293637D01*
X155434513Y-96293524D01*
X155340381Y-96293044D01*
X155254974Y-96292227D01*
X155180905Y-96291101D01*
X155120786Y-96289699D01*
X155077232Y-96288049D01*
X155056791Y-96286646D01*
X154872758Y-96257536D01*
X154692464Y-96207989D01*
X154517640Y-96138638D01*
X154350019Y-96050118D01*
X154267959Y-95997860D01*
X154201085Y-95947842D01*
X154127249Y-95884476D01*
X154050888Y-95812248D01*
X153976444Y-95735644D01*
X153908355Y-95659148D01*
X153851061Y-95587246D01*
X153825446Y-95550809D01*
X153729577Y-95386930D01*
X153651559Y-95212983D01*
X153592689Y-95032051D01*
X153573258Y-94951357D01*
X153562488Y-94886823D01*
X153554003Y-94807196D01*
X153548024Y-94718449D01*
X153544773Y-94626554D01*
X153544472Y-94537485D01*
X153547341Y-94457213D01*
X153552736Y-94398041D01*
X153587554Y-94211049D01*
X153641928Y-94031980D01*
X153715561Y-93861417D01*
X153808155Y-93699943D01*
X153919412Y-93548140D01*
X154049037Y-93406591D01*
X154067929Y-93388297D01*
X154203515Y-93271295D01*
X154347504Y-93171700D01*
X154501640Y-93088640D01*
X154667665Y-93021245D01*
X154847324Y-92968644D01*
X154955070Y-92945222D01*
X154967854Y-92943121D01*
X154984121Y-92941193D01*
X155004811Y-92939428D01*
X155030868Y-92937816D01*
X155063234Y-92936346D01*
X155102849Y-92935010D01*
X155150657Y-92933796D01*
X155207600Y-92932696D01*
X155274619Y-92931698D01*
X155352656Y-92930794D01*
X155442653Y-92929973D01*
X155545553Y-92929226D01*
X155662298Y-92928541D01*
X155793828Y-92927911D01*
X155941087Y-92927323D01*
X156105017Y-92926770D01*
X156286559Y-92926240D01*
X156486655Y-92925723D01*
X156706247Y-92925211D01*
X156889979Y-92924811D01*
X157086116Y-92924441D01*
X157276470Y-92924174D01*
X157459972Y-92924007D01*
X157635550Y-92923938D01*
X157802133Y-92923965D01*
X157802133Y-92923965D01*
G37*
X157802133Y-92923965D02*
X157958648Y-92924083D01*
X158104025Y-92924292D01*
X158237192Y-92924588D01*
X158357078Y-92924969D01*
X158462612Y-92925432D01*
X158552721Y-92925975D01*
X158626336Y-92926596D01*
X158682384Y-92927291D01*
X158719793Y-92928058D01*
X158737493Y-92928895D01*
X158738834Y-92929212D01*
X158732512Y-92939938D01*
X158715332Y-92964542D01*
X158689379Y-93000156D01*
X158656740Y-93043913D01*
X158625036Y-93085708D01*
X158511820Y-93233875D01*
X156786764Y-93239584D01*
X156563103Y-93240327D01*
X156359596Y-93241017D01*
X156175232Y-93241671D01*
X156008997Y-93242303D01*
X155859880Y-93242930D01*
X155726869Y-93243567D01*
X155608952Y-93244231D01*
X155505116Y-93244936D01*
X155414349Y-93245699D01*
X155335639Y-93246535D01*
X155267974Y-93247460D01*
X155210342Y-93248489D01*
X155161730Y-93249640D01*
X155121126Y-93250926D01*
X155087519Y-93252364D01*
X155059895Y-93253970D01*
X155037244Y-93255760D01*
X155018552Y-93257748D01*
X155002807Y-93259952D01*
X154988998Y-93262386D01*
X154976112Y-93265066D01*
X154963476Y-93267931D01*
X154797151Y-93314440D01*
X154645874Y-93374301D01*
X154507348Y-93448740D01*
X154379274Y-93538980D01*
X154266407Y-93639261D01*
X154154487Y-93763752D01*
X154060074Y-93898780D01*
X153983459Y-94042591D01*
X153924932Y-94193429D01*
X153884783Y-94349538D01*
X153863304Y-94509162D01*
X153860784Y-94670547D01*
X153877513Y-94831935D01*
X153913783Y-94991573D01*
X153969884Y-95147704D01*
X154004556Y-95222110D01*
X154088611Y-95365988D01*
X154189588Y-95498414D01*
X154305698Y-95617834D01*
X154435151Y-95722692D01*
X154576160Y-95811434D01*
X154726934Y-95882504D01*
X154791834Y-95906403D01*
X154836204Y-95921156D01*
X154876457Y-95933561D01*
X154914938Y-95943843D01*
X154953994Y-95952224D01*
X154995973Y-95958928D01*
X155043222Y-95964177D01*
X155098087Y-95968196D01*
X155162915Y-95971206D01*
X155240054Y-95973432D01*
X155331850Y-95975097D01*
X155440650Y-95976423D01*
X155537959Y-95977358D01*
X155664189Y-95978390D01*
X155771367Y-95978885D01*
X155861605Y-95978648D01*
X155937015Y-95977483D01*
X155999708Y-95975194D01*
X156051796Y-95971584D01*
X156095391Y-95966458D01*
X156132604Y-95959619D01*
X156165549Y-95950871D01*
X156196335Y-95940018D01*
X156227076Y-95926864D01*
X156259882Y-95911213D01*
X156262136Y-95910105D01*
X156346589Y-95857436D01*
X156423208Y-95787982D01*
X156488922Y-95705583D01*
X156540659Y-95614077D01*
X156574825Y-95519321D01*
X156579530Y-95497127D01*
X156583280Y-95469008D01*
X156586167Y-95432597D01*
X156588286Y-95385523D01*
X156589729Y-95325418D01*
X156590592Y-95249911D01*
X156590966Y-95156635D01*
X156591000Y-95110193D01*
X156591000Y-94763166D01*
X155215167Y-94763166D01*
X155215167Y-94456250D01*
X156909566Y-94456250D01*
X156905951Y-94998645D01*
X156905123Y-95122237D01*
X156904305Y-95226756D01*
X156903321Y-95314298D01*
X156901996Y-95386957D01*
X156900153Y-95446826D01*
X156897617Y-95496001D01*
X156894212Y-95536575D01*
X156889763Y-95570642D01*
X156884093Y-95600297D01*
X156877027Y-95627634D01*
X156868389Y-95654747D01*
X156858003Y-95683729D01*
X156845693Y-95716677D01*
X156845671Y-95716734D01*
X156792350Y-95829809D01*
X156720862Y-95935197D01*
X156633409Y-96030975D01*
X156532191Y-96115218D01*
X156419409Y-96186003D01*
X156297264Y-96241405D01*
X156215292Y-96267873D01*
X156194607Y-96273303D01*
X156174390Y-96277827D01*
X156152521Y-96281538D01*
X156126879Y-96284532D01*
X156095344Y-96286900D01*
X156055795Y-96288737D01*
X156006113Y-96290136D01*
X155944176Y-96291192D01*
X155867866Y-96291997D01*
X155775060Y-96292646D01*
X155663640Y-96293232D01*
X155638500Y-96293352D01*
X155534757Y-96293637D01*
X155434513Y-96293524D01*
X155340381Y-96293044D01*
X155254974Y-96292227D01*
X155180905Y-96291101D01*
X155120786Y-96289699D01*
X155077232Y-96288049D01*
X155056791Y-96286646D01*
X154872758Y-96257536D01*
X154692464Y-96207989D01*
X154517640Y-96138638D01*
X154350019Y-96050118D01*
X154267959Y-95997860D01*
X154201085Y-95947842D01*
X154127249Y-95884476D01*
X154050888Y-95812248D01*
X153976444Y-95735644D01*
X153908355Y-95659148D01*
X153851061Y-95587246D01*
X153825446Y-95550809D01*
X153729577Y-95386930D01*
X153651559Y-95212983D01*
X153592689Y-95032051D01*
X153573258Y-94951357D01*
X153562488Y-94886823D01*
X153554003Y-94807196D01*
X153548024Y-94718449D01*
X153544773Y-94626554D01*
X153544472Y-94537485D01*
X153547341Y-94457213D01*
X153552736Y-94398041D01*
X153587554Y-94211049D01*
X153641928Y-94031980D01*
X153715561Y-93861417D01*
X153808155Y-93699943D01*
X153919412Y-93548140D01*
X154049037Y-93406591D01*
X154067929Y-93388297D01*
X154203515Y-93271295D01*
X154347504Y-93171700D01*
X154501640Y-93088640D01*
X154667665Y-93021245D01*
X154847324Y-92968644D01*
X154955070Y-92945222D01*
X154967854Y-92943121D01*
X154984121Y-92941193D01*
X155004811Y-92939428D01*
X155030868Y-92937816D01*
X155063234Y-92936346D01*
X155102849Y-92935010D01*
X155150657Y-92933796D01*
X155207600Y-92932696D01*
X155274619Y-92931698D01*
X155352656Y-92930794D01*
X155442653Y-92929973D01*
X155545553Y-92929226D01*
X155662298Y-92928541D01*
X155793828Y-92927911D01*
X155941087Y-92927323D01*
X156105017Y-92926770D01*
X156286559Y-92926240D01*
X156486655Y-92925723D01*
X156706247Y-92925211D01*
X156889979Y-92924811D01*
X157086116Y-92924441D01*
X157276470Y-92924174D01*
X157459972Y-92924007D01*
X157635550Y-92923938D01*
X157802133Y-92923965D01*
G36*
X169513250Y-96297750D02*
X169195750Y-96297750D01*
X169195750Y-94456250D01*
X169513250Y-94456250D01*
X169513250Y-96297750D01*
X169513250Y-96297750D01*
G37*
X169513250Y-96297750D02*
X169195750Y-96297750D01*
X169195750Y-94456250D01*
X169513250Y-94456250D01*
X169513250Y-96297750D01*
G36*
X171844229Y-94458491D02*
X172587709Y-94461541D01*
X172677667Y-94491879D01*
X172773562Y-94527792D01*
X172854861Y-94567070D01*
X172928126Y-94613643D01*
X172999918Y-94671440D01*
X173041326Y-94709600D01*
X173121171Y-94793984D01*
X173185568Y-94881187D01*
X173238119Y-94976949D01*
X173282426Y-95087011D01*
X173287488Y-95101833D01*
X173317693Y-95191791D01*
X173320996Y-95744770D01*
X173324299Y-96297750D01*
X173018229Y-96297750D01*
X173013764Y-95787104D01*
X173012683Y-95664716D01*
X173011597Y-95561390D01*
X173010265Y-95475020D01*
X173008449Y-95403502D01*
X173005907Y-95344731D01*
X173002400Y-95296603D01*
X172997686Y-95257013D01*
X172991525Y-95223857D01*
X172983678Y-95195031D01*
X172973904Y-95168429D01*
X172961962Y-95141948D01*
X172947613Y-95113482D01*
X172933827Y-95087080D01*
X172878826Y-95003381D01*
X172807249Y-94928118D01*
X172723001Y-94864395D01*
X172629991Y-94815315D01*
X172561250Y-94791189D01*
X172522191Y-94782584D01*
X172471748Y-94774547D01*
X172419682Y-94768591D01*
X172410438Y-94767822D01*
X172317834Y-94760663D01*
X172317834Y-96297750D01*
X172000334Y-96297750D01*
X172000334Y-94763166D01*
X171418250Y-94763166D01*
X171418250Y-96297750D01*
X170928771Y-96296407D01*
X170826263Y-96295940D01*
X170728055Y-96295138D01*
X170636637Y-96294046D01*
X170554496Y-96292710D01*
X170484119Y-96291176D01*
X170427997Y-96289487D01*
X170388615Y-96287691D01*
X170371141Y-96286246D01*
X170241795Y-96259205D01*
X170117977Y-96213236D01*
X170001904Y-96150070D01*
X169895796Y-96071436D01*
X169801869Y-95979065D01*
X169722342Y-95874686D01*
X169659434Y-95760030D01*
X169641522Y-95717195D01*
X169627455Y-95679846D01*
X169615583Y-95645444D01*
X169605721Y-95611831D01*
X169597682Y-95576850D01*
X169591282Y-95538345D01*
X169586334Y-95494159D01*
X169582653Y-95442134D01*
X169580053Y-95380113D01*
X169578349Y-95305941D01*
X169577354Y-95217458D01*
X169576884Y-95112510D01*
X169576752Y-94988938D01*
X169576750Y-94964696D01*
X169576750Y-94456250D01*
X169894250Y-94456250D01*
X169894250Y-94956734D01*
X169894299Y-95080334D01*
X169894586Y-95184857D01*
X169895327Y-95272395D01*
X169896735Y-95345037D01*
X169899025Y-95404875D01*
X169902408Y-95454000D01*
X169907101Y-95494500D01*
X169913316Y-95528468D01*
X169921268Y-95557993D01*
X169931170Y-95585166D01*
X169943236Y-95612078D01*
X169957680Y-95640819D01*
X169965836Y-95656482D01*
X170018129Y-95736869D01*
X170086030Y-95811252D01*
X170163986Y-95874175D01*
X170223017Y-95909217D01*
X170261102Y-95927545D01*
X170297241Y-95942436D01*
X170334170Y-95954244D01*
X170374630Y-95963318D01*
X170421358Y-95970010D01*
X170477093Y-95974672D01*
X170544574Y-95977654D01*
X170626539Y-95979309D01*
X170725728Y-95979986D01*
X170775313Y-95980066D01*
X171100750Y-95980250D01*
X171100750Y-94455440D01*
X171844229Y-94458491D01*
X171844229Y-94458491D01*
G37*
X171844229Y-94458491D02*
X172587709Y-94461541D01*
X172677667Y-94491879D01*
X172773562Y-94527792D01*
X172854861Y-94567070D01*
X172928126Y-94613643D01*
X172999918Y-94671440D01*
X173041326Y-94709600D01*
X173121171Y-94793984D01*
X173185568Y-94881187D01*
X173238119Y-94976949D01*
X173282426Y-95087011D01*
X173287488Y-95101833D01*
X173317693Y-95191791D01*
X173320996Y-95744770D01*
X173324299Y-96297750D01*
X173018229Y-96297750D01*
X173013764Y-95787104D01*
X173012683Y-95664716D01*
X173011597Y-95561390D01*
X173010265Y-95475020D01*
X173008449Y-95403502D01*
X173005907Y-95344731D01*
X173002400Y-95296603D01*
X172997686Y-95257013D01*
X172991525Y-95223857D01*
X172983678Y-95195031D01*
X172973904Y-95168429D01*
X172961962Y-95141948D01*
X172947613Y-95113482D01*
X172933827Y-95087080D01*
X172878826Y-95003381D01*
X172807249Y-94928118D01*
X172723001Y-94864395D01*
X172629991Y-94815315D01*
X172561250Y-94791189D01*
X172522191Y-94782584D01*
X172471748Y-94774547D01*
X172419682Y-94768591D01*
X172410438Y-94767822D01*
X172317834Y-94760663D01*
X172317834Y-96297750D01*
X172000334Y-96297750D01*
X172000334Y-94763166D01*
X171418250Y-94763166D01*
X171418250Y-96297750D01*
X170928771Y-96296407D01*
X170826263Y-96295940D01*
X170728055Y-96295138D01*
X170636637Y-96294046D01*
X170554496Y-96292710D01*
X170484119Y-96291176D01*
X170427997Y-96289487D01*
X170388615Y-96287691D01*
X170371141Y-96286246D01*
X170241795Y-96259205D01*
X170117977Y-96213236D01*
X170001904Y-96150070D01*
X169895796Y-96071436D01*
X169801869Y-95979065D01*
X169722342Y-95874686D01*
X169659434Y-95760030D01*
X169641522Y-95717195D01*
X169627455Y-95679846D01*
X169615583Y-95645444D01*
X169605721Y-95611831D01*
X169597682Y-95576850D01*
X169591282Y-95538345D01*
X169586334Y-95494159D01*
X169582653Y-95442134D01*
X169580053Y-95380113D01*
X169578349Y-95305941D01*
X169577354Y-95217458D01*
X169576884Y-95112510D01*
X169576752Y-94988938D01*
X169576750Y-94964696D01*
X169576750Y-94456250D01*
X169894250Y-94456250D01*
X169894250Y-94956734D01*
X169894299Y-95080334D01*
X169894586Y-95184857D01*
X169895327Y-95272395D01*
X169896735Y-95345037D01*
X169899025Y-95404875D01*
X169902408Y-95454000D01*
X169907101Y-95494500D01*
X169913316Y-95528468D01*
X169921268Y-95557993D01*
X169931170Y-95585166D01*
X169943236Y-95612078D01*
X169957680Y-95640819D01*
X169965836Y-95656482D01*
X170018129Y-95736869D01*
X170086030Y-95811252D01*
X170163986Y-95874175D01*
X170223017Y-95909217D01*
X170261102Y-95927545D01*
X170297241Y-95942436D01*
X170334170Y-95954244D01*
X170374630Y-95963318D01*
X170421358Y-95970010D01*
X170477093Y-95974672D01*
X170544574Y-95977654D01*
X170626539Y-95979309D01*
X170725728Y-95979986D01*
X170775313Y-95980066D01*
X171100750Y-95980250D01*
X171100750Y-94455440D01*
X171844229Y-94458491D01*
G36*
X173821112Y-95914802D02*
X173869896Y-95936070D01*
X173877408Y-95941372D01*
X173920959Y-95986664D01*
X173946994Y-96040213D01*
X173955261Y-96098024D01*
X173945504Y-96156100D01*
X173917469Y-96210446D01*
X173896140Y-96235350D01*
X173851515Y-96268684D01*
X173799196Y-96290551D01*
X173751875Y-96297226D01*
X173728314Y-96293464D01*
X173696918Y-96284677D01*
X173690018Y-96282312D01*
X173638618Y-96253971D01*
X173600492Y-96212898D01*
X173576015Y-96163077D01*
X173565562Y-96108489D01*
X173569507Y-96053116D01*
X173588225Y-96000941D01*
X173622090Y-95955945D01*
X173656841Y-95929776D01*
X173706925Y-95911252D01*
X173764235Y-95906395D01*
X173821112Y-95914802D01*
X173821112Y-95914802D01*
G37*
X173821112Y-95914802D02*
X173869896Y-95936070D01*
X173877408Y-95941372D01*
X173920959Y-95986664D01*
X173946994Y-96040213D01*
X173955261Y-96098024D01*
X173945504Y-96156100D01*
X173917469Y-96210446D01*
X173896140Y-96235350D01*
X173851515Y-96268684D01*
X173799196Y-96290551D01*
X173751875Y-96297226D01*
X173728314Y-96293464D01*
X173696918Y-96284677D01*
X173690018Y-96282312D01*
X173638618Y-96253971D01*
X173600492Y-96212898D01*
X173576015Y-96163077D01*
X173565562Y-96108489D01*
X173569507Y-96053116D01*
X173588225Y-96000941D01*
X173622090Y-95955945D01*
X173656841Y-95929776D01*
X173706925Y-95911252D01*
X173764235Y-95906395D01*
X173821112Y-95914802D01*
G36*
X174780334Y-94463359D02*
X174856721Y-94468782D01*
X174923191Y-94479479D01*
X174985271Y-94496665D01*
X175048490Y-94521551D01*
X175118376Y-94555352D01*
X175121695Y-94557066D01*
X175167587Y-94582796D01*
X175214605Y-94612538D01*
X175259187Y-94643623D01*
X175297775Y-94673385D01*
X175326809Y-94699155D01*
X175342728Y-94718266D01*
X175344667Y-94724158D01*
X175337562Y-94735544D01*
X175318470Y-94758094D01*
X175290728Y-94788408D01*
X175257670Y-94823087D01*
X175222633Y-94858730D01*
X175188951Y-94891939D01*
X175159962Y-94919314D01*
X175138999Y-94937456D01*
X175129854Y-94943083D01*
X175118049Y-94936946D01*
X175094965Y-94920883D01*
X175066543Y-94899109D01*
X174975019Y-94839112D01*
X174875216Y-94798390D01*
X174766573Y-94776757D01*
X174689461Y-94772845D01*
X174579288Y-94783469D01*
X174474360Y-94814178D01*
X174376635Y-94864149D01*
X174288072Y-94932557D01*
X174271046Y-94948962D01*
X174198735Y-95035507D01*
X174145391Y-95131341D01*
X174111230Y-95235935D01*
X174096468Y-95348761D01*
X174095834Y-95378677D01*
X174105532Y-95486917D01*
X174133300Y-95587284D01*
X174177149Y-95678661D01*
X174235088Y-95759929D01*
X174305126Y-95829970D01*
X174385274Y-95887664D01*
X174473541Y-95931894D01*
X174567938Y-95961542D01*
X174666474Y-95975488D01*
X174767160Y-95972615D01*
X174868005Y-95951805D01*
X174967018Y-95911937D01*
X175006026Y-95890186D01*
X175041575Y-95866770D01*
X175073300Y-95842696D01*
X175089891Y-95827617D01*
X175110109Y-95809305D01*
X175125780Y-95800477D01*
X175127106Y-95800333D01*
X175138384Y-95807469D01*
X175161408Y-95827064D01*
X175193171Y-95856397D01*
X175230665Y-95892750D01*
X175244214Y-95906255D01*
X175286474Y-95949257D01*
X175315253Y-95980299D01*
X175332481Y-96001932D01*
X175340088Y-96016706D01*
X175340002Y-96027172D01*
X175338317Y-96030609D01*
X175316316Y-96056102D01*
X175279769Y-96087699D01*
X175233133Y-96122188D01*
X175180868Y-96156356D01*
X175127433Y-96186990D01*
X175106542Y-96197626D01*
X174989748Y-96244428D01*
X174864446Y-96276241D01*
X174736392Y-96292118D01*
X174611345Y-96291108D01*
X174568037Y-96286409D01*
X174436187Y-96257821D01*
X174310598Y-96210116D01*
X174193418Y-96144876D01*
X174086797Y-96063682D01*
X173992882Y-95968117D01*
X173913824Y-95859760D01*
X173864405Y-95768562D01*
X173835889Y-95704768D01*
X173814888Y-95649471D01*
X173800314Y-95597215D01*
X173791080Y-95542545D01*
X173786097Y-95480006D01*
X173784276Y-95404142D01*
X173784194Y-95366416D01*
X173784514Y-95300714D01*
X173785578Y-95251269D01*
X173787995Y-95213171D01*
X173792371Y-95181512D01*
X173799313Y-95151380D01*
X173809429Y-95117867D01*
X173818228Y-95091250D01*
X173862528Y-94979998D01*
X173917891Y-94881019D01*
X173987965Y-94788480D01*
X174047107Y-94725023D01*
X174138607Y-94642610D01*
X174232501Y-94577435D01*
X174334623Y-94525852D01*
X174413334Y-94496144D01*
X174451845Y-94483572D01*
X174483724Y-94474579D01*
X174513884Y-94468553D01*
X174547238Y-94464885D01*
X174588700Y-94462966D01*
X174643182Y-94462186D01*
X174688500Y-94461999D01*
X174780334Y-94463359D01*
X174780334Y-94463359D01*
G37*
X174780334Y-94463359D02*
X174856721Y-94468782D01*
X174923191Y-94479479D01*
X174985271Y-94496665D01*
X175048490Y-94521551D01*
X175118376Y-94555352D01*
X175121695Y-94557066D01*
X175167587Y-94582796D01*
X175214605Y-94612538D01*
X175259187Y-94643623D01*
X175297775Y-94673385D01*
X175326809Y-94699155D01*
X175342728Y-94718266D01*
X175344667Y-94724158D01*
X175337562Y-94735544D01*
X175318470Y-94758094D01*
X175290728Y-94788408D01*
X175257670Y-94823087D01*
X175222633Y-94858730D01*
X175188951Y-94891939D01*
X175159962Y-94919314D01*
X175138999Y-94937456D01*
X175129854Y-94943083D01*
X175118049Y-94936946D01*
X175094965Y-94920883D01*
X175066543Y-94899109D01*
X174975019Y-94839112D01*
X174875216Y-94798390D01*
X174766573Y-94776757D01*
X174689461Y-94772845D01*
X174579288Y-94783469D01*
X174474360Y-94814178D01*
X174376635Y-94864149D01*
X174288072Y-94932557D01*
X174271046Y-94948962D01*
X174198735Y-95035507D01*
X174145391Y-95131341D01*
X174111230Y-95235935D01*
X174096468Y-95348761D01*
X174095834Y-95378677D01*
X174105532Y-95486917D01*
X174133300Y-95587284D01*
X174177149Y-95678661D01*
X174235088Y-95759929D01*
X174305126Y-95829970D01*
X174385274Y-95887664D01*
X174473541Y-95931894D01*
X174567938Y-95961542D01*
X174666474Y-95975488D01*
X174767160Y-95972615D01*
X174868005Y-95951805D01*
X174967018Y-95911937D01*
X175006026Y-95890186D01*
X175041575Y-95866770D01*
X175073300Y-95842696D01*
X175089891Y-95827617D01*
X175110109Y-95809305D01*
X175125780Y-95800477D01*
X175127106Y-95800333D01*
X175138384Y-95807469D01*
X175161408Y-95827064D01*
X175193171Y-95856397D01*
X175230665Y-95892750D01*
X175244214Y-95906255D01*
X175286474Y-95949257D01*
X175315253Y-95980299D01*
X175332481Y-96001932D01*
X175340088Y-96016706D01*
X175340002Y-96027172D01*
X175338317Y-96030609D01*
X175316316Y-96056102D01*
X175279769Y-96087699D01*
X175233133Y-96122188D01*
X175180868Y-96156356D01*
X175127433Y-96186990D01*
X175106542Y-96197626D01*
X174989748Y-96244428D01*
X174864446Y-96276241D01*
X174736392Y-96292118D01*
X174611345Y-96291108D01*
X174568037Y-96286409D01*
X174436187Y-96257821D01*
X174310598Y-96210116D01*
X174193418Y-96144876D01*
X174086797Y-96063682D01*
X173992882Y-95968117D01*
X173913824Y-95859760D01*
X173864405Y-95768562D01*
X173835889Y-95704768D01*
X173814888Y-95649471D01*
X173800314Y-95597215D01*
X173791080Y-95542545D01*
X173786097Y-95480006D01*
X173784276Y-95404142D01*
X173784194Y-95366416D01*
X173784514Y-95300714D01*
X173785578Y-95251269D01*
X173787995Y-95213171D01*
X173792371Y-95181512D01*
X173799313Y-95151380D01*
X173809429Y-95117867D01*
X173818228Y-95091250D01*
X173862528Y-94979998D01*
X173917891Y-94881019D01*
X173987965Y-94788480D01*
X174047107Y-94725023D01*
X174138607Y-94642610D01*
X174232501Y-94577435D01*
X174334623Y-94525852D01*
X174413334Y-94496144D01*
X174451845Y-94483572D01*
X174483724Y-94474579D01*
X174513884Y-94468553D01*
X174547238Y-94464885D01*
X174588700Y-94462966D01*
X174643182Y-94462186D01*
X174688500Y-94461999D01*
X174780334Y-94463359D01*
G36*
X176333905Y-94461232D02*
X176401038Y-94469669D01*
X176412812Y-94471962D01*
X176544354Y-94510112D01*
X176667041Y-94566511D01*
X176779272Y-94639556D01*
X176879445Y-94727642D01*
X176965956Y-94829164D01*
X177037205Y-94942517D01*
X177091588Y-95066096D01*
X177124869Y-95185123D01*
X177138100Y-95279149D01*
X177141846Y-95381926D01*
X177136341Y-95485338D01*
X177121822Y-95581268D01*
X177112246Y-95620416D01*
X177066060Y-95746563D01*
X177001114Y-95866353D01*
X176919613Y-95976358D01*
X176823762Y-96073147D01*
X176818024Y-96078098D01*
X176754735Y-96125263D01*
X176677888Y-96171729D01*
X176594866Y-96213694D01*
X176513051Y-96247359D01*
X176453547Y-96265732D01*
X176381544Y-96279533D01*
X176299036Y-96288660D01*
X176214545Y-96292606D01*
X176136594Y-96290865D01*
X176096725Y-96286911D01*
X175961736Y-96257620D01*
X175833807Y-96208588D01*
X175714125Y-96140408D01*
X175603876Y-96053674D01*
X175574116Y-96025411D01*
X175482329Y-95920628D01*
X175409479Y-95806463D01*
X175355270Y-95682371D01*
X175322276Y-95562229D01*
X175304324Y-95425654D01*
X175304393Y-95421115D01*
X175621947Y-95421115D01*
X175637719Y-95517908D01*
X175669100Y-95610956D01*
X175715472Y-95698191D01*
X175776216Y-95777547D01*
X175850716Y-95846956D01*
X175938352Y-95904353D01*
X176038508Y-95947669D01*
X176101375Y-95965362D01*
X176172225Y-95974856D01*
X176253087Y-95974664D01*
X176335401Y-95965251D01*
X176405180Y-95948811D01*
X176467300Y-95923504D01*
X176534426Y-95886273D01*
X176599302Y-95841856D01*
X176654675Y-95794993D01*
X176677739Y-95770727D01*
X176741427Y-95680665D01*
X176788394Y-95579986D01*
X176817132Y-95472748D01*
X176826177Y-95371286D01*
X176816486Y-95261783D01*
X176786863Y-95159137D01*
X176737195Y-95063083D01*
X176667368Y-94973353D01*
X176647328Y-94952460D01*
X176564273Y-94879909D01*
X176478260Y-94827217D01*
X176386186Y-94793073D01*
X176284943Y-94776171D01*
X176223084Y-94773750D01*
X176117466Y-94781283D01*
X176022448Y-94804823D01*
X175934702Y-94845778D01*
X175850901Y-94905556D01*
X175798839Y-94953310D01*
X175727300Y-95037827D01*
X175674460Y-95128932D01*
X175639699Y-95224560D01*
X175622401Y-95322643D01*
X175621947Y-95421115D01*
X175304393Y-95421115D01*
X175306379Y-95291486D01*
X175327341Y-95161406D01*
X175366113Y-95037096D01*
X175421596Y-94920239D01*
X175492689Y-94812517D01*
X175578295Y-94715612D01*
X175677315Y-94631205D01*
X175788650Y-94560979D01*
X175911200Y-94506616D01*
X176034700Y-94471679D01*
X176098260Y-94462426D01*
X176174595Y-94457604D01*
X176255784Y-94457208D01*
X176333905Y-94461232D01*
X176333905Y-94461232D01*
G37*
X176333905Y-94461232D02*
X176401038Y-94469669D01*
X176412812Y-94471962D01*
X176544354Y-94510112D01*
X176667041Y-94566511D01*
X176779272Y-94639556D01*
X176879445Y-94727642D01*
X176965956Y-94829164D01*
X177037205Y-94942517D01*
X177091588Y-95066096D01*
X177124869Y-95185123D01*
X177138100Y-95279149D01*
X177141846Y-95381926D01*
X177136341Y-95485338D01*
X177121822Y-95581268D01*
X177112246Y-95620416D01*
X177066060Y-95746563D01*
X177001114Y-95866353D01*
X176919613Y-95976358D01*
X176823762Y-96073147D01*
X176818024Y-96078098D01*
X176754735Y-96125263D01*
X176677888Y-96171729D01*
X176594866Y-96213694D01*
X176513051Y-96247359D01*
X176453547Y-96265732D01*
X176381544Y-96279533D01*
X176299036Y-96288660D01*
X176214545Y-96292606D01*
X176136594Y-96290865D01*
X176096725Y-96286911D01*
X175961736Y-96257620D01*
X175833807Y-96208588D01*
X175714125Y-96140408D01*
X175603876Y-96053674D01*
X175574116Y-96025411D01*
X175482329Y-95920628D01*
X175409479Y-95806463D01*
X175355270Y-95682371D01*
X175322276Y-95562229D01*
X175304324Y-95425654D01*
X175304393Y-95421115D01*
X175621947Y-95421115D01*
X175637719Y-95517908D01*
X175669100Y-95610956D01*
X175715472Y-95698191D01*
X175776216Y-95777547D01*
X175850716Y-95846956D01*
X175938352Y-95904353D01*
X176038508Y-95947669D01*
X176101375Y-95965362D01*
X176172225Y-95974856D01*
X176253087Y-95974664D01*
X176335401Y-95965251D01*
X176405180Y-95948811D01*
X176467300Y-95923504D01*
X176534426Y-95886273D01*
X176599302Y-95841856D01*
X176654675Y-95794993D01*
X176677739Y-95770727D01*
X176741427Y-95680665D01*
X176788394Y-95579986D01*
X176817132Y-95472748D01*
X176826177Y-95371286D01*
X176816486Y-95261783D01*
X176786863Y-95159137D01*
X176737195Y-95063083D01*
X176667368Y-94973353D01*
X176647328Y-94952460D01*
X176564273Y-94879909D01*
X176478260Y-94827217D01*
X176386186Y-94793073D01*
X176284943Y-94776171D01*
X176223084Y-94773750D01*
X176117466Y-94781283D01*
X176022448Y-94804823D01*
X175934702Y-94845778D01*
X175850901Y-94905556D01*
X175798839Y-94953310D01*
X175727300Y-95037827D01*
X175674460Y-95128932D01*
X175639699Y-95224560D01*
X175622401Y-95322643D01*
X175621947Y-95421115D01*
X175304393Y-95421115D01*
X175306379Y-95291486D01*
X175327341Y-95161406D01*
X175366113Y-95037096D01*
X175421596Y-94920239D01*
X175492689Y-94812517D01*
X175578295Y-94715612D01*
X175677315Y-94631205D01*
X175788650Y-94560979D01*
X175911200Y-94506616D01*
X176034700Y-94471679D01*
X176098260Y-94462426D01*
X176174595Y-94457604D01*
X176255784Y-94457208D01*
X176333905Y-94461232D01*
G36*
X178065387Y-94456282D02*
X178194444Y-94456459D01*
X178305736Y-94456896D01*
X178400962Y-94457711D01*
X178481823Y-94459019D01*
X178550019Y-94460940D01*
X178607250Y-94463588D01*
X178655217Y-94467081D01*
X178695621Y-94471536D01*
X178730161Y-94477070D01*
X178760539Y-94483800D01*
X178788453Y-94491843D01*
X178815605Y-94501314D01*
X178843696Y-94512333D01*
X178865954Y-94521495D01*
X178989506Y-94583983D01*
X179101281Y-94663286D01*
X179199727Y-94757700D01*
X179283290Y-94865521D01*
X179350419Y-94985041D01*
X179396445Y-95104246D01*
X179406486Y-95140675D01*
X179414958Y-95180869D01*
X179421980Y-95226809D01*
X179427669Y-95280473D01*
X179432143Y-95343842D01*
X179435519Y-95418893D01*
X179437916Y-95507606D01*
X179439451Y-95611961D01*
X179440241Y-95733937D01*
X179440417Y-95843788D01*
X179440417Y-96297750D01*
X179124354Y-96297750D01*
X179120798Y-95781812D01*
X179119964Y-95663925D01*
X179119165Y-95565215D01*
X179118305Y-95483693D01*
X179117289Y-95417370D01*
X179116021Y-95364256D01*
X179114406Y-95322363D01*
X179112349Y-95289701D01*
X179109753Y-95264281D01*
X179106525Y-95244115D01*
X179102567Y-95227212D01*
X179097785Y-95211584D01*
X179092739Y-95197083D01*
X179043481Y-95086725D01*
X178980130Y-94992091D01*
X178903109Y-94913498D01*
X178812839Y-94851262D01*
X178709742Y-94805700D01*
X178594238Y-94777128D01*
X178522313Y-94768512D01*
X178424417Y-94760919D01*
X178424417Y-96297750D01*
X178106917Y-96297750D01*
X178106917Y-94763166D01*
X177524834Y-94763166D01*
X177524834Y-96297750D01*
X177207334Y-96297750D01*
X177207334Y-94456250D01*
X177916863Y-94456250D01*
X178065387Y-94456282D01*
X178065387Y-94456282D01*
G37*
X178065387Y-94456282D02*
X178194444Y-94456459D01*
X178305736Y-94456896D01*
X178400962Y-94457711D01*
X178481823Y-94459019D01*
X178550019Y-94460940D01*
X178607250Y-94463588D01*
X178655217Y-94467081D01*
X178695621Y-94471536D01*
X178730161Y-94477070D01*
X178760539Y-94483800D01*
X178788453Y-94491843D01*
X178815605Y-94501314D01*
X178843696Y-94512333D01*
X178865954Y-94521495D01*
X178989506Y-94583983D01*
X179101281Y-94663286D01*
X179199727Y-94757700D01*
X179283290Y-94865521D01*
X179350419Y-94985041D01*
X179396445Y-95104246D01*
X179406486Y-95140675D01*
X179414958Y-95180869D01*
X179421980Y-95226809D01*
X179427669Y-95280473D01*
X179432143Y-95343842D01*
X179435519Y-95418893D01*
X179437916Y-95507606D01*
X179439451Y-95611961D01*
X179440241Y-95733937D01*
X179440417Y-95843788D01*
X179440417Y-96297750D01*
X179124354Y-96297750D01*
X179120798Y-95781812D01*
X179119964Y-95663925D01*
X179119165Y-95565215D01*
X179118305Y-95483693D01*
X179117289Y-95417370D01*
X179116021Y-95364256D01*
X179114406Y-95322363D01*
X179112349Y-95289701D01*
X179109753Y-95264281D01*
X179106525Y-95244115D01*
X179102567Y-95227212D01*
X179097785Y-95211584D01*
X179092739Y-95197083D01*
X179043481Y-95086725D01*
X178980130Y-94992091D01*
X178903109Y-94913498D01*
X178812839Y-94851262D01*
X178709742Y-94805700D01*
X178594238Y-94777128D01*
X178522313Y-94768512D01*
X178424417Y-94760919D01*
X178424417Y-96297750D01*
X178106917Y-96297750D01*
X178106917Y-94763166D01*
X177524834Y-94763166D01*
X177524834Y-96297750D01*
X177207334Y-96297750D01*
X177207334Y-94456250D01*
X177916863Y-94456250D01*
X178065387Y-94456282D01*
G36*
X169418150Y-93881464D02*
X169451716Y-93898613D01*
X169477591Y-93919133D01*
X169517719Y-93966501D01*
X169540116Y-94019577D01*
X169545898Y-94074843D01*
X169536177Y-94128782D01*
X169512069Y-94177879D01*
X169474687Y-94218616D01*
X169425147Y-94247478D01*
X169369400Y-94260555D01*
X169330250Y-94260689D01*
X169293375Y-94255354D01*
X169282456Y-94252059D01*
X169252826Y-94236090D01*
X169220785Y-94212098D01*
X169211138Y-94203268D01*
X169175106Y-94155051D01*
X169156946Y-94101619D01*
X169155351Y-94046617D01*
X169169015Y-93993692D01*
X169196630Y-93946491D01*
X169236889Y-93908660D01*
X169288485Y-93883844D01*
X169328316Y-93876349D01*
X169379558Y-93874772D01*
X169418150Y-93881464D01*
X169418150Y-93881464D01*
G37*
X169418150Y-93881464D02*
X169451716Y-93898613D01*
X169477591Y-93919133D01*
X169517719Y-93966501D01*
X169540116Y-94019577D01*
X169545898Y-94074843D01*
X169536177Y-94128782D01*
X169512069Y-94177879D01*
X169474687Y-94218616D01*
X169425147Y-94247478D01*
X169369400Y-94260555D01*
X169330250Y-94260689D01*
X169293375Y-94255354D01*
X169282456Y-94252059D01*
X169252826Y-94236090D01*
X169220785Y-94212098D01*
X169211138Y-94203268D01*
X169175106Y-94155051D01*
X169156946Y-94101619D01*
X169155351Y-94046617D01*
X169169015Y-93993692D01*
X169196630Y-93946491D01*
X169236889Y-93908660D01*
X169288485Y-93883844D01*
X169328316Y-93876349D01*
X169379558Y-93874772D01*
X169418150Y-93881464D01*
G36*
X172516461Y-94025354D02*
X172522306Y-94027559D01*
X172509714Y-94029099D01*
X172481875Y-94029637D01*
X172454715Y-94029001D01*
X172444253Y-94027435D01*
X172452707Y-94025278D01*
X172452961Y-94025246D01*
X172487474Y-94023518D01*
X172516461Y-94025354D01*
X172516461Y-94025354D01*
G37*
X172516461Y-94025354D02*
X172522306Y-94027559D01*
X172509714Y-94029099D01*
X172481875Y-94029637D01*
X172454715Y-94029001D01*
X172444253Y-94027435D01*
X172452707Y-94025278D01*
X172452961Y-94025246D01*
X172487474Y-94023518D01*
X172516461Y-94025354D01*
D12*
X148630000Y-85145000D02*
X153630000Y-85145000D01*
X148590000Y-83185000D02*
X119380000Y-83185000D01*
X119380000Y-83185000D02*
X119380000Y-78105000D01*
X119380000Y-78105000D02*
X182880000Y-78105000D01*
X182880000Y-78105000D02*
X182880000Y-83185000D01*
X182880000Y-83185000D02*
X153670000Y-83185000D01*
X148590000Y-85120000D02*
X148590000Y-83185000D01*
X148590000Y-83185000D02*
X153670000Y-83185000D01*
X153670000Y-83185000D02*
X153670000Y-85120000D01*
%LPC*%
D15*
X137030000Y-71000000D03*
X138300000Y-72910000D03*
X139570000Y-71000000D03*
X140840000Y-72910000D03*
X142110000Y-71000000D03*
X143380000Y-72910000D03*
X144650000Y-71000000D03*
X145920000Y-72910000D03*
X147190000Y-71000000D03*
X148460000Y-72910000D03*
X149730000Y-71000000D03*
X151000000Y-72910000D03*
X152270000Y-71000000D03*
X153540000Y-72910000D03*
X135760000Y-72910000D03*
X154810000Y-71000000D03*
X156080000Y-72910000D03*
X157350000Y-71000000D03*
X158620000Y-72910000D03*
X159890000Y-71000000D03*
X161160000Y-72910000D03*
X162430000Y-71000000D03*
X163700000Y-72910000D03*
X164970000Y-71000000D03*
X166240000Y-72910000D03*
X135760000Y-69090000D03*
X137030000Y-67180000D03*
X138300000Y-69090000D03*
X139570000Y-67180000D03*
X140840000Y-69090000D03*
X142110000Y-67180000D03*
X143380000Y-69090000D03*
X144650000Y-67180000D03*
X145920000Y-69090000D03*
X147190000Y-67180000D03*
X148460000Y-69090000D03*
X149730000Y-67180000D03*
X151000000Y-69090000D03*
X152270000Y-67180000D03*
X153540000Y-69090000D03*
X154810000Y-67180000D03*
X156080000Y-69090000D03*
X157350000Y-67180000D03*
X158620000Y-69090000D03*
X159890000Y-67180000D03*
X161160000Y-69090000D03*
X162430000Y-67180000D03*
X163700000Y-69090000D03*
X164970000Y-67180000D03*
X166240000Y-69090000D03*
D16*
X180000000Y-115500000D03*
D17*
X149860000Y-99440000D03*
X148590000Y-99440000D03*
X147320000Y-99440000D03*
X146050000Y-99440000D03*
X144780000Y-99440000D03*
X143510000Y-99440000D03*
X142240000Y-99440000D03*
X140970000Y-99440000D03*
X139700000Y-99440000D03*
X138430000Y-99440000D03*
X138430000Y-108840000D03*
X139700000Y-108840000D03*
X140970000Y-108840000D03*
X142240000Y-108840000D03*
X143510000Y-108840000D03*
X144780000Y-108840000D03*
X146050000Y-108840000D03*
X147320000Y-108840000D03*
X148590000Y-108840000D03*
X149860000Y-108840000D03*
D15*
X152400000Y-95885000D03*
X152400000Y-88265000D03*
X180975000Y-109220000D03*
X180975000Y-99060000D03*
D17*
X166370000Y-108840000D03*
X167640000Y-108840000D03*
X168910000Y-108840000D03*
X170180000Y-108840000D03*
X171450000Y-108840000D03*
X172720000Y-108840000D03*
X173990000Y-108840000D03*
X175260000Y-108840000D03*
X176530000Y-108840000D03*
X177800000Y-108840000D03*
X177800000Y-99440000D03*
X176530000Y-99440000D03*
X175260000Y-99440000D03*
X173990000Y-99440000D03*
X172720000Y-99440000D03*
X171450000Y-99440000D03*
X170180000Y-99440000D03*
X168910000Y-99440000D03*
X167640000Y-99440000D03*
X166370000Y-99440000D03*
X152400000Y-108840000D03*
X153670000Y-108840000D03*
X154940000Y-108840000D03*
X156210000Y-108840000D03*
X157480000Y-108840000D03*
X158750000Y-108840000D03*
X160020000Y-108840000D03*
X161290000Y-108840000D03*
X162560000Y-108840000D03*
X163830000Y-108840000D03*
X163830000Y-99440000D03*
X162560000Y-99440000D03*
X161290000Y-99440000D03*
X160020000Y-99440000D03*
X158750000Y-99440000D03*
X157480000Y-99440000D03*
X156210000Y-99440000D03*
X154940000Y-99440000D03*
X153670000Y-99440000D03*
X152400000Y-99440000D03*
X135890000Y-99440000D03*
X134620000Y-99440000D03*
X133350000Y-99440000D03*
X132080000Y-99440000D03*
X130810000Y-99440000D03*
X129540000Y-99440000D03*
X128270000Y-99440000D03*
X127000000Y-99440000D03*
X125730000Y-99440000D03*
X124460000Y-99440000D03*
X124460000Y-108840000D03*
X125730000Y-108840000D03*
X127000000Y-108840000D03*
X128270000Y-108840000D03*
X129540000Y-108840000D03*
X130810000Y-108840000D03*
X132080000Y-108840000D03*
X133350000Y-108840000D03*
X134620000Y-108840000D03*
X135890000Y-108840000D03*
D18*
X175130000Y-114210000D03*
D15*
X175130000Y-116750000D03*
X172590000Y-114210000D03*
X172590000Y-116750000D03*
X170050000Y-114210000D03*
X170050000Y-116750000D03*
X167510000Y-114210000D03*
X167510000Y-116750000D03*
X164970000Y-114210000D03*
X164970000Y-116750000D03*
X162430000Y-114210000D03*
X162430000Y-116750000D03*
X159890000Y-114210000D03*
X159890000Y-116750000D03*
X157350000Y-114210000D03*
X157350000Y-116750000D03*
X154810000Y-114210000D03*
X154810000Y-116750000D03*
X152270000Y-114210000D03*
X152270000Y-116750000D03*
X149730000Y-114210000D03*
X149730000Y-116750000D03*
X147190000Y-114210000D03*
X147190000Y-116750000D03*
X144650000Y-114210000D03*
X144650000Y-116750000D03*
X142110000Y-114210000D03*
X142110000Y-116750000D03*
X139570000Y-114210000D03*
X139570000Y-116750000D03*
X137030000Y-114210000D03*
X137030000Y-116750000D03*
X134490000Y-114210000D03*
X134490000Y-116750000D03*
X131950000Y-114210000D03*
X131950000Y-116750000D03*
X129410000Y-114210000D03*
X129410000Y-116750000D03*
X126870000Y-114210000D03*
X126870000Y-116750000D03*
X180975000Y-93345000D03*
X180975000Y-90805000D03*
X149860000Y-94615000D03*
X149860000Y-89535000D03*
X121285000Y-109220000D03*
X121285000Y-99060000D03*
D19*
X180975000Y-73575000D03*
X180975000Y-71205000D03*
X121285000Y-73575000D03*
X121285000Y-71205000D03*
D16*
X122000000Y-115500000D03*
X122000000Y-66500000D03*
X180000000Y-66500000D03*
D18*
X120650000Y-81915000D03*
D15*
X120650000Y-79375000D03*
X123190000Y-81915000D03*
X123190000Y-79375000D03*
X125730000Y-81915000D03*
X125730000Y-79375000D03*
X128270000Y-81915000D03*
X128270000Y-79375000D03*
X130810000Y-81915000D03*
X130810000Y-79375000D03*
X133350000Y-81915000D03*
X133350000Y-79375000D03*
X135890000Y-81915000D03*
X135890000Y-79375000D03*
X138430000Y-81915000D03*
X138430000Y-79375000D03*
X140970000Y-81915000D03*
X140970000Y-79375000D03*
X143510000Y-81915000D03*
X143510000Y-79375000D03*
X146050000Y-81915000D03*
X146050000Y-79375000D03*
X148590000Y-81915000D03*
X148590000Y-79375000D03*
X151130000Y-81915000D03*
X151130000Y-79375000D03*
X153670000Y-81915000D03*
X153670000Y-79375000D03*
X156210000Y-81915000D03*
X156210000Y-79375000D03*
X158750000Y-81915000D03*
X158750000Y-79375000D03*
X161290000Y-81915000D03*
X161290000Y-79375000D03*
X163830000Y-81915000D03*
X163830000Y-79375000D03*
X166370000Y-81915000D03*
X166370000Y-79375000D03*
X168910000Y-81915000D03*
X168910000Y-79375000D03*
X171450000Y-81915000D03*
X171450000Y-79375000D03*
X173990000Y-81915000D03*
X173990000Y-79375000D03*
X176530000Y-81915000D03*
X176530000Y-79375000D03*
X179070000Y-81915000D03*
X179070000Y-79375000D03*
X181610000Y-81915000D03*
X181610000Y-79375000D03*
M02*
