%TF.GenerationSoftware,KiCad,Pcbnew,4.0.7*%
%TF.CreationDate,2017-10-24T10:16:06+09:00*%
%TF.ProjectId,RaSCSI,5261534353492E6B696361645F706362,rev?*%
%TF.FileFunction,Profile,NP*%
%FSLAX46Y46*%
G04 Gerber Fmt 4.6, Leading zero omitted, Abs format (unit mm)*
G04 Created by KiCad (PCBNEW 4.0.7) date 10/24/17 10:16:06*
%MOMM*%
%LPD*%
G01*
G04 APERTURE LIST*
%ADD10C,0.100000*%
%ADD11C,0.150000*%
G04 APERTURE END LIST*
D10*
D11*
X127750000Y-72500000D02*
G75*
G03X129250000Y-71000000I0J1500000D01*
G01*
X127750000Y-67590000D02*
G75*
G03X126250000Y-69090000I0J-1500000D01*
G01*
X126250000Y-71000000D02*
G75*
G03X127750000Y-72500000I1500000J0D01*
G01*
X129250000Y-69090000D02*
G75*
G03X127750000Y-67590000I-1500000J0D01*
G01*
X129250000Y-71000000D02*
X129250000Y-69090000D01*
X126250000Y-71000000D02*
X126250000Y-69090000D01*
X172750000Y-71000000D02*
X172750000Y-69090000D01*
X175750000Y-71000000D02*
X175750000Y-69090000D01*
X175750000Y-69090000D02*
G75*
G03X174250000Y-67590000I-1500000J0D01*
G01*
X172750000Y-71000000D02*
G75*
G03X174250000Y-72500000I1500000J0D01*
G01*
X174250000Y-67590000D02*
G75*
G03X172750000Y-69090000I0J-1500000D01*
G01*
X174250000Y-72500000D02*
G75*
G03X175750000Y-71000000I0J1500000D01*
G01*
X180500000Y-119000000D02*
X121500000Y-119000000D01*
X183500000Y-66000000D02*
X183500000Y-116000000D01*
X121500000Y-63000000D02*
X180500000Y-63000000D01*
X118500000Y-116000000D02*
X118500000Y-66000000D01*
X118500000Y-116000000D02*
G75*
G03X121500000Y-119000000I3000000J0D01*
G01*
X180500000Y-119000000D02*
G75*
G03X183500000Y-116000000I0J3000000D01*
G01*
X183500000Y-66000000D02*
G75*
G03X180500000Y-63000000I-3000000J0D01*
G01*
X121500000Y-63000000D02*
G75*
G03X118500000Y-66000000I0J-3000000D01*
G01*
M02*
