M48
;DRILL file {KiCad 4.0.7} date 10/24/17 10:20:01
;FORMAT={-:-/ absolute / inch / decimal}
FMAT,2
INCH,TZ
T1C0.016
T2C0.030
T3C0.039
T4C0.040
T5C0.118
%
G90
G05
M72
T1
X4.75Y-3.3
X4.84Y-2.98
X4.85Y-3.3
X4.9Y-2.98
X4.9Y-3.975
X4.9Y-4.225
X4.95Y-3.3
X4.95Y-3.975
X4.95Y-4.225
X5.Y-3.975
X5.Y-4.225
X5.05Y-3.3
X5.05Y-3.975
X5.05Y-4.225
X5.1Y-2.98
X5.1Y-3.5
X5.1Y-3.725
X5.1Y-3.975
X5.1Y-4.225
X5.15Y-3.3
X5.15Y-3.5
X5.15Y-3.725
X5.15Y-4.225
X5.2Y-3.5
X5.2Y-3.725
X5.2Y-4.225
X5.25Y-3.3
X5.25Y-3.5
X5.25Y-3.725
X5.25Y-4.175
X5.25Y-4.225
X5.3Y-2.98
X5.3Y-4.225
X5.35Y-3.3
X5.35Y-4.225
X5.375Y-3.5
X5.375Y-3.725
X5.4Y-4.175
X5.425Y-3.5
X5.425Y-3.725
X5.45Y-3.3
X5.45Y-3.975
X5.45Y-4.025
X5.475Y-3.5
X5.475Y-3.725
X5.5Y-3.975
X5.5Y-4.025
X5.525Y-3.5
X5.525Y-3.725
X5.55Y-3.3
X5.55Y-3.975
X5.55Y-4.025
X5.6Y-3.975
X5.6Y-4.225
X5.65Y-3.3
X5.65Y-3.5
X5.65Y-3.725
X5.65Y-4.225
X5.7Y-4.225
X5.75Y-3.3
X5.75Y-4.225
X5.8Y-4.175
X5.8Y-4.225
X5.85Y-4.125
X5.85Y-4.225
X5.9Y-3.975
X5.9Y-4.225
X5.9045Y-4.075
X6.Y-3.85
X6.Y-3.975
X6.Y-4.075
X6.Y-4.4
X6.05Y-3.975
X6.05Y-4.125
X6.05Y-4.225
X6.1Y-3.5
X6.1Y-3.725
X6.1Y-3.975
X6.1Y-4.175
X6.1Y-4.225
X6.15Y-3.3
X6.15Y-3.5
X6.15Y-3.725
X6.15Y-4.225
X6.2Y-3.5
X6.2Y-3.725
X6.2Y-4.225
X6.25Y-3.3
X6.25Y-3.5
X6.25Y-3.725
X6.25Y-4.225
X6.3Y-4.025
X6.35Y-3.3
X6.35Y-3.975
X6.35Y-4.025
X6.4Y-3.3
X6.4Y-3.975
X6.4Y-4.025
X6.45Y-2.575
X6.45Y-3.3
X6.45Y-3.975
X6.45Y-4.025
X6.45Y-4.35
X6.45Y-4.65
X6.525Y-3.5
X6.525Y-3.725
X6.55Y-3.3
X6.55Y-3.85
X6.55Y-3.975
X6.55Y-4.35
X6.575Y-3.45
X6.6Y-2.98
X6.6Y-3.975
X6.6Y-4.225
X6.65Y-3.3
X6.65Y-3.5
X6.65Y-3.725
X6.65Y-4.225
X6.7Y-3.5
X6.7Y-3.725
X6.7Y-4.225
X6.71Y-2.98
X6.725Y-3.3
X6.75Y-3.5
X6.75Y-3.725
X6.75Y-4.225
X6.8Y-3.5
X6.8Y-3.725
X6.8Y-4.175
X6.8Y-4.225
X6.81Y-2.98
X6.85Y-3.3
X6.85Y-4.225
X6.875Y-3.85
X6.9Y-3.975
X6.9Y-4.225
X6.91Y-2.98
X6.95Y-3.3
X6.95Y-3.975
X6.95Y-4.225
X7.Y-3.975
X7.Y-4.225
X7.05Y-3.3
X7.06Y-2.975
X7.13Y-4.38
X7.15Y-3.3
T2
X4.775Y-2.8
X4.775Y-2.9
X5.3449Y-2.7201
X5.3449Y-2.8705
X5.3949Y-2.6449
X5.3949Y-2.7953
X5.4449Y-2.7201
X5.4449Y-2.8705
X5.4949Y-2.6449
X5.4949Y-2.7953
X5.5449Y-2.7201
X5.5449Y-2.8705
X5.5949Y-2.6449
X5.5949Y-2.7953
X5.6449Y-2.7201
X5.6449Y-2.8705
X5.6949Y-2.6449
X5.6949Y-2.7953
X5.7449Y-2.7201
X5.7449Y-2.8705
X5.7949Y-2.6449
X5.7949Y-2.7953
X5.8449Y-2.7201
X5.8449Y-2.8705
X5.8949Y-2.6449
X5.8949Y-2.7953
X5.9449Y-2.7201
X5.9449Y-2.8705
X5.9949Y-2.6449
X5.9949Y-2.7953
X6.0449Y-2.7201
X6.0449Y-2.8705
X6.0949Y-2.6449
X6.0949Y-2.7953
X6.1449Y-2.7201
X6.1449Y-2.8705
X6.1949Y-2.6449
X6.1949Y-2.7953
X6.2449Y-2.7201
X6.2449Y-2.8705
X6.2949Y-2.6449
X6.2949Y-2.7953
X6.3449Y-2.7201
X6.3449Y-2.8705
X6.3949Y-2.6449
X6.3949Y-2.7953
X6.4449Y-2.7201
X6.4449Y-2.8705
X6.4949Y-2.6449
X6.4949Y-2.7953
X6.5449Y-2.7201
X6.5449Y-2.8705
X7.125Y-2.8
X7.125Y-2.9
T3
X4.75Y-3.125
X4.75Y-3.225
X4.775Y-3.9
X4.775Y-4.3
X4.85Y-3.125
X4.85Y-3.225
X4.95Y-3.125
X4.95Y-3.225
X5.05Y-3.125
X5.05Y-3.225
X5.15Y-3.125
X5.15Y-3.225
X5.25Y-3.125
X5.25Y-3.225
X5.35Y-3.125
X5.35Y-3.225
X5.45Y-3.125
X5.45Y-3.225
X5.55Y-3.125
X5.55Y-3.225
X5.65Y-3.125
X5.65Y-3.225
X5.75Y-3.125
X5.75Y-3.225
X5.85Y-3.125
X5.85Y-3.225
X5.9Y-3.525
X5.9Y-3.725
X5.95Y-3.125
X5.95Y-3.225
X6.Y-3.475
X6.Y-3.775
X6.05Y-3.125
X6.05Y-3.225
X6.15Y-3.125
X6.15Y-3.225
X6.25Y-3.125
X6.25Y-3.225
X6.35Y-3.125
X6.35Y-3.225
X6.45Y-3.125
X6.45Y-3.225
X6.55Y-3.125
X6.55Y-3.225
X6.65Y-3.125
X6.65Y-3.225
X6.75Y-3.125
X6.75Y-3.225
X6.85Y-3.125
X6.85Y-3.225
X6.95Y-3.125
X6.95Y-3.225
X7.05Y-3.125
X7.05Y-3.225
X7.125Y-3.9
X7.125Y-4.3
X7.15Y-3.125
X7.15Y-3.225
T4
X4.9949Y-4.4965
X4.9949Y-4.5965
X5.0949Y-4.4965
X5.0949Y-4.5965
X5.1949Y-4.4965
X5.1949Y-4.5965
X5.2949Y-4.4965
X5.2949Y-4.5965
X5.3949Y-4.4965
X5.3949Y-4.5965
X5.4949Y-4.4965
X5.4949Y-4.5965
X5.5949Y-4.4965
X5.5949Y-4.5965
X5.6949Y-4.4965
X5.6949Y-4.5965
X5.7949Y-4.4965
X5.7949Y-4.5965
X5.8949Y-4.4965
X5.8949Y-4.5965
X5.9949Y-4.4965
X5.9949Y-4.5965
X6.0949Y-4.4965
X6.0949Y-4.5965
X6.1949Y-4.4965
X6.1949Y-4.5965
X6.2949Y-4.4965
X6.2949Y-4.5965
X6.3949Y-4.4965
X6.3949Y-4.5965
X6.4949Y-4.4965
X6.4949Y-4.5965
X6.5949Y-4.4965
X6.5949Y-4.5965
X6.6949Y-4.4965
X6.6949Y-4.5965
X6.7949Y-4.4965
X6.7949Y-4.5965
X6.8949Y-4.4965
X6.8949Y-4.5965
X7.125Y-3.575
X7.125Y-3.675
T5
X4.8031Y-2.6181
X4.8031Y-4.5472
X7.0866Y-2.6181
X7.0866Y-4.5472
T0
M30
